<svg preserveAspectRatio="none" width="100%" height="100%" overflow="visible" style="display: block;" viewBox="0 0 271 226" fill="none" xmlns="http://www.w3.org/2000/svg">
<g id="undraw_empty-cart_574u 1" clip-path="url(#clip0_167_472)">
<path id="Vector" d="M12.5924 215.354C16.3515 222.318 24.3295 225.308 24.3295 225.308C24.3295 225.308 26.2129 217.006 22.4539 210.042C18.6948 203.078 10.7168 200.088 10.7168 200.088C10.7168 200.088 8.83339 208.39 12.5924 215.354Z" fill="var(--fill-0, #2F2E41)"/>
<path id="Vector_2" d="M15.1762 213.063C21.9628 217.142 24.5765 225.244 24.5765 225.244C24.5765 225.244 16.187 226.732 9.40036 222.654C2.61374 218.575 0 210.473 0 210.473C0 210.473 8.38954 208.984 15.1762 213.063Z" fill="var(--fill-0, #FEB05D)"/>
<path id="Vector_3" d="M167.333 10.8496H124.989V11.4539H167.333V10.8496Z" fill="var(--fill-0, #F2F2F2)"/>
<path id="Vector_4" d="M155.84 11.3028H155.235V16.8926H155.84V11.3028Z" fill="var(--fill-0, #F2F2F2)"/>
<path id="Vector_5" d="M137.39 11.3028H136.785V16.8926H137.39V11.3028Z" fill="var(--fill-0, #F2F2F2)"/>
<path id="Vector_6" d="M188.807 39.856H146.464V40.4603H188.807V39.856Z" fill="var(--fill-0, #F2F2F2)"/>
<path id="Vector_7" d="M158.562 34.4173H157.957V40.0071H158.562V34.4173Z" fill="var(--fill-0, #F2F2F2)"/>
<path id="Vector_8" d="M177.012 34.4173H176.407V40.0071H177.012V34.4173Z" fill="var(--fill-0, #F2F2F2)"/>
<path id="Vector_9" d="M245.064 53.4528H202.72V54.0571H245.064V53.4528Z" fill="var(--fill-0, #F2F2F2)"/>
<path id="Vector_10" d="M214.818 48.0141H214.214V53.6039H214.818V48.0141Z" fill="var(--fill-0, #F2F2F2)"/>
<path id="Vector_11" d="M233.268 48.0141H232.663V53.6039H233.268V48.0141Z" fill="var(--fill-0, #F2F2F2)"/>
<path id="Vector_12" d="M240.83 193.651H198.486V194.255H240.83V193.651Z" fill="var(--fill-0, #F2F2F2)"/>
<path id="Vector_13" d="M210.584 188.212H209.979V193.802H210.584V188.212Z" fill="var(--fill-0, #F2F2F2)"/>
<path id="Vector_14" d="M229.034 188.212H228.429V193.802H229.034V188.212Z" fill="var(--fill-0, #F2F2F2)"/>
<path id="Vector_15" d="M168.543 96.6603H126.199V97.2646H168.543V96.6603Z" fill="var(--fill-0, #F2F2F2)"/>
<path id="Vector_16" d="M138.297 91.2216H137.692V96.8114H138.297V91.2216Z" fill="var(--fill-0, #F2F2F2)"/>
<path id="Vector_17" d="M156.747 91.2216H156.142V96.8114H156.747V91.2216Z" fill="var(--fill-0, #F2F2F2)"/>
<path id="Vector_18" d="M181.851 169.479H139.507V170.083H181.851V169.479Z" fill="var(--fill-0, #F2F2F2)"/>
<path id="Vector_19" d="M151.605 164.04H151V169.63H151.605V164.04Z" fill="var(--fill-0, #F2F2F2)"/>
<path id="Vector_20" d="M170.055 164.04H169.45V169.63H170.055V164.04Z" fill="var(--fill-0, #F2F2F2)"/>
<path id="Vector_21" d="M249.601 147.422H207.257V148.026H249.601V147.422Z" fill="var(--fill-0, #F2F2F2)"/>
<path id="Vector_22" d="M219.355 141.983H218.75V147.573H219.355V141.983Z" fill="var(--fill-0, #F2F2F2)"/>
<path id="Vector_23" d="M237.805 141.983H237.2V147.573H237.805V141.983Z" fill="var(--fill-0, #F2F2F2)"/>
<path id="Vector_24" d="M109.507 212.165H37.8898V211.651H108.992V186.687H43.9105L40.7489 180.107L41.2135 179.884L44.2347 186.172H109.507V212.165Z" fill="var(--fill-0, #2F2E41)"/>
<path id="Vector_25" d="M47.4215 224.776C50.4094 224.776 52.8315 222.356 52.8315 219.371C52.8315 216.386 50.4094 213.967 47.4215 213.967C44.4337 213.967 42.0116 216.386 42.0116 219.371C42.0116 222.356 44.4337 224.776 47.4215 224.776Z" fill="var(--fill-0, #3F3D56)"/>
<path id="Vector_26" d="M100.748 224.776C103.736 224.776 106.158 222.356 106.158 219.371C106.158 216.386 103.736 213.967 100.748 213.967C97.7602 213.967 95.3381 216.386 95.3381 219.371C95.3381 222.356 97.7602 224.776 100.748 224.776Z" fill="var(--fill-0, #3F3D56)"/>
<path id="Vector_27" d="M163.606 107.936C165.456 107.936 166.955 106.438 166.955 104.59C166.955 102.743 165.456 101.245 163.606 101.245C161.757 101.245 160.257 102.743 160.257 104.59C160.257 106.438 161.757 107.936 163.606 107.936Z" fill="var(--fill-0, #3F3D56)"/>
<path id="Vector_28" d="M117.167 178.194H36.6687L19.2508 121.319H135.105L134.999 121.653L117.167 178.194ZM37.0498 177.68H116.789L134.402 121.833H19.9472L37.0498 177.68Z" fill="var(--fill-0, #2F2E41)"/>
<path id="Vector_29" d="M110.883 175.235H40.1788L24.88 124.793H126.638L126.546 125.09L110.883 175.235Z" fill="var(--fill-0, #F2F2F2)"/>
<path id="Vector_30" d="M136.548 116.237L136.05 116.105L139.45 103.303H159.227V103.818H139.846L136.548 116.237Z" fill="var(--fill-0, #2F2E41)"/>
<path id="Vector_31" d="M129.315 138.561H24.8795V139.076H129.315V138.561Z" fill="var(--fill-0, #2F2E41)"/>
<path id="Vector_32" d="M123.334 157.524H30.6868V158.039H123.334V157.524Z" fill="var(--fill-0, #2F2E41)"/>
<path id="Vector_33" d="M77.4338 121.576H76.9186V177.937H77.4338V121.576Z" fill="var(--fill-0, #2F2E41)"/>
<path id="Vector_34" d="M100.502 121.56L96.8031 177.919L97.3173 177.953L101.016 121.593L100.502 121.56Z" fill="var(--fill-0, #2F2E41)"/>
<path id="Vector_35" d="M53.8614 121.559L53.3472 121.593L57.0243 177.954L57.5385 177.92L53.8614 121.559Z" fill="var(--fill-0, #2F2E41)"/>
<path id="Vector_36" d="M271 225.102H0V225.706H271V225.102Z" fill="var(--fill-0, #2F2E41)"/>
<path id="Vector_37" d="M180.085 18.6959C180.085 18.6959 184.507 31.2672 181.786 33.2013C179.065 35.1353 190.969 50.9301 190.969 50.9301L205.253 47.062L197.431 33.846C197.431 33.846 196.41 20.6299 196.41 18.6959C196.41 16.7618 180.085 18.6959 180.085 18.6959Z" fill="var(--fill-0, #A0616A)"/>
<path id="Vector_38" opacity="0.1" d="M180.085 18.6959C180.085 18.6959 184.507 31.2672 181.786 33.2013C179.065 35.1353 190.969 50.9301 190.969 50.9301L205.253 47.062L197.431 33.846C197.431 33.846 196.41 20.6299 196.41 18.6959C196.41 16.7618 180.085 18.6959 180.085 18.6959Z" fill="var(--fill-0, black)"/>
<path id="Vector_39" d="M172.664 108.307C172.664 108.307 171.373 124.424 172.664 132.805C173.954 141.186 175.89 164.395 175.89 164.395C175.89 164.395 175.89 208.233 182.989 208.878C190.088 209.523 195.251 210.167 195.896 207.589C196.541 205.01 192.669 203.72 194.605 202.431C196.541 201.142 197.187 196.629 194.605 191.471C192.024 186.314 194.605 134.094 194.605 134.094L206.867 166.973C206.867 166.973 208.157 194.05 209.448 197.918C210.739 201.786 208.157 208.878 212.675 209.523C217.192 210.167 222.355 206.299 224.936 205.01C227.517 203.72 221.064 203.72 222.355 203.076C223.645 202.431 227.517 200.497 226.227 199.852C224.936 199.208 223.645 168.263 223.645 168.263C223.645 168.263 220.096 102.183 215.579 99.6038C211.061 97.0251 208.157 101.467 208.157 101.467L172.664 108.307Z" fill="var(--fill-0, #2F2E41)"/>
<path id="Vector_40" d="M184.28 206.299V211.457C184.28 211.457 178.472 225.476 184.28 225.476C190.088 225.476 194.605 226.929 194.605 224.995V207.589L184.28 206.299Z" fill="var(--fill-0, #2F2E41)"/>
<path id="Vector_41" d="M222.355 206.29V211.448C222.355 211.448 228.163 225.467 222.355 225.467C216.547 225.467 212.029 226.92 212.029 224.986V207.579L222.355 206.29Z" fill="var(--fill-0, #2F2E41)"/>
<path id="Vector_42" d="M189.12 28.0438C195.535 28.0438 200.736 22.8484 200.736 16.4395C200.736 10.0306 195.535 4.83514 189.12 4.83514C182.704 4.83514 177.504 10.0306 177.504 16.4395C177.504 22.8484 182.704 28.0438 189.12 28.0438Z" fill="var(--fill-0, #A0616A)"/>
<path id="Vector_43" d="M185.57 38.0364C185.57 38.0364 188.797 47.7067 193.96 45.7726L199.123 43.8386L208.157 105.728C208.157 105.728 201.059 116.043 190.733 109.596C180.408 103.15 185.57 38.0364 185.57 38.0364Z" fill="var(--fill-0, #FEB05D)"/>
<path id="Vector_44" d="M194.605 36.1024L197.509 29.9779C197.509 29.9779 214.611 38.0364 217.192 40.6152C219.773 43.1939 219.773 47.062 219.773 47.062L215.256 63.1791C215.256 63.1791 216.547 98.6368 216.547 99.9262C216.547 101.216 221.064 108.307 217.837 105.728C214.611 103.15 213.965 100.571 211.384 104.439C208.803 108.307 202.995 112.82 202.995 112.82L194.605 36.1024Z" fill="var(--fill-0, #3F3D56)"/>
<path id="Vector_45" d="M217.192 82.5197L215.256 100.571C215.256 100.571 203.64 110.886 206.221 111.531C208.803 112.175 210.093 109.596 210.093 109.596C210.093 109.596 214.611 114.109 217.192 111.531C219.773 108.952 226.227 84.4537 226.227 84.4537L217.192 82.5197Z" fill="var(--fill-0, #A0616A)"/>
<path id="Vector_46" d="M189.367 0.0392406C186.792 -0.052725 184.036 -0.0982171 181.865 1.28809C180.866 1.98382 179.99 2.84068 179.272 3.8236C177.158 6.49414 175.331 9.8543 176.116 13.1677L177.028 12.8123C177.028 13.6967 176.832 14.5701 176.452 15.3692C176.581 14.9961 177.011 15.5993 176.896 15.9768L175.891 19.2705C177.543 18.6655 179.598 19.8904 179.849 21.6302C179.964 17.8046 180.362 13.4178 183.468 11.1778C185.035 10.0481 187.017 9.70329 188.925 9.39706C190.685 9.11455 192.529 8.84516 194.215 9.42391C195.9 10.0027 197.336 11.7248 196.954 13.4639C197.731 13.1965 198.6 13.7376 198.984 14.4636C199.368 15.1897 199.389 16.0461 199.4 16.8673C200.229 17.4522 201.171 16.2907 201.509 15.335C202.302 13.0917 203.006 10.7038 202.579 8.36349C202.152 6.02315 200.243 3.7866 197.862 3.77866C198.151 3.4615 198.305 3.04447 198.292 2.61576L196.329 2.45009C196.827 2.37961 197.286 2.13826 197.625 1.76737C196.837 2.63361 190.642 0.0847475 189.367 0.0392406Z" fill="var(--fill-0, #2F2E41)"/>
<path id="Vector_47" d="M188.797 34.1683C188.797 34.1683 183.544 29.0254 181.653 29.3405C179.762 29.6555 177.181 34.1683 177.181 34.1683C177.181 34.1683 161.693 39.3258 162.338 44.4833C162.984 49.6408 170.082 74.7835 170.082 74.7835C170.082 74.7835 175.89 105.084 170.728 108.307C165.565 111.531 195.251 119.911 195.896 116.043C196.541 112.175 197.832 73.4941 195.896 67.6919C193.96 61.8898 188.797 34.1683 188.797 34.1683Z" fill="var(--fill-0, #3F3D56)"/>
<path id="Vector_48" d="M211.384 44.4833H219.363C219.363 44.4833 224.936 68.9813 225.581 71.56C226.227 74.1388 227.517 86.3878 226.872 86.3878C226.227 86.3878 213.32 83.8091 213.32 85.7431L211.384 44.4833Z" fill="var(--fill-0, #3F3D56)"/>
<path id="Vector_49" d="M211.114 105.148H180.566C177.585 91.4489 177.336 78.2127 180.566 65.5667H211.114C206.184 77.9853 205.876 91.1308 211.114 105.148Z" fill="var(--fill-0, #F2F2F2)"/>
<path id="Vector_50" d="M168.146 88.3219L177.181 92.19C177.181 92.19 194.605 94.7687 194.605 87.6772C194.605 80.5857 177.181 84.4538 177.181 84.4538L171.373 82.5985L168.146 88.3219Z" fill="var(--fill-0, #A0616A)"/>
<path id="Vector_51" d="M170.082 40.6152L162.338 42.5492L156.53 76.7175C156.53 76.7175 154.594 85.7431 157.821 86.3878C161.048 87.0325 170.082 92.19 170.082 92.19C170.082 92.19 171.373 82.5197 173.954 82.5197L167.501 77.3622L171.373 54.7982L170.082 40.6152Z" fill="var(--fill-0, #3F3D56)"/>
<path id="Vector_52" d="M60.5662 106.631H18.2225V107.236H60.5662V106.631Z" fill="var(--fill-0, #F2F2F2)"/>
<path id="Vector_53" d="M30.3207 101.193H29.7158V106.782H30.3207V101.193Z" fill="var(--fill-0, #F2F2F2)"/>
<path id="Vector_54" d="M48.7705 101.193H48.1656V106.782H48.7705V101.193Z" fill="var(--fill-0, #F2F2F2)"/>
<path id="Vector_55" d="M75.3865 17.1947H33.0428V17.799H75.3865V17.1947Z" fill="var(--fill-0, #F2F2F2)"/>
<path id="Vector_56" d="M63.8932 17.6479H63.2883V23.2377H63.8932V17.6479Z" fill="var(--fill-0, #F2F2F2)"/>
<path id="Vector_57" d="M45.4435 17.6479H44.8386V23.2377H45.4435V17.6479Z" fill="var(--fill-0, #F2F2F2)"/>
<path id="Vector_58" d="M118.033 76.7184H75.689V77.3227H118.033V76.7184Z" fill="var(--fill-0, #F2F2F2)"/>
<path id="Vector_59" d="M106.539 77.1716H105.935V82.7614H106.539V77.1716Z" fill="var(--fill-0, #F2F2F2)"/>
<path id="Vector_60" d="M88.0897 77.1716H87.4848V82.7614H88.0897V77.1716Z" fill="var(--fill-0, #F2F2F2)"/>
<path id="Vector_61" d="M46.0484 76.4162H3.70462V77.0205H46.0484V76.4162Z" fill="var(--fill-0, #F2F2F2)"/>
<path id="Vector_62" d="M34.5551 76.8695H33.9502V82.4592H34.5551V76.8695Z" fill="var(--fill-0, #F2F2F2)"/>
<path id="Vector_63" d="M16.1053 76.8695H15.5004V82.4592H16.1053V76.8695Z" fill="var(--fill-0, #F2F2F2)"/>
<path id="Vector_64" d="M96.8609 46.2012H54.5171V46.8055H96.8609V46.2012Z" fill="var(--fill-0, #F2F2F2)"/>
<path id="Vector_65" d="M66.6153 40.7625H66.0104V46.3523H66.6153V40.7625Z" fill="var(--fill-0, #F2F2F2)"/>
<path id="Vector_66" d="M85.0651 40.7625H84.4602V46.3523H85.0651V40.7625Z" fill="var(--fill-0, #F2F2F2)"/>
</g>
<defs>
<clipPath id="clip0_167_472">
<rect width="271" height="226" fill="white"/>
</clipPath>
</defs>
</svg>
