<svg preserveAspectRatio="none" width="100%" height="100%" overflow="visible" style="display: block;" viewBox="0 0 110.9 176.108" fill="none" xmlns="http://www.w3.org/2000/svg">
<g id="Group">
<path id="Vector" d="M33.9867 111.173C36.0169 111.605 38.0128 110.309 38.4446 108.279C38.8764 106.249 37.5806 104.253 35.5503 103.821C33.5201 103.389 31.5242 104.685 31.0924 106.715C30.6606 108.746 31.9564 110.742 33.9867 111.173Z" fill="var(--fill-0, #FF6584)"/>
<path id="Vector_2" d="M42.9287 152.273C44.959 152.704 46.9549 151.409 47.3866 149.378C47.8184 147.348 46.5226 145.352 44.4924 144.92C42.4621 144.489 40.4662 145.784 40.0344 147.815C39.6026 149.845 40.8984 151.841 42.9287 152.273Z" fill="var(--fill-0, #FEB05D)"/>
<path id="Vector_3" d="M4.83047 60.3776C8.62866 61.4391 12.1212 63.3856 15.0218 66.0576C17.9223 68.7296 20.1483 72.051 21.5173 75.7495C21.899 76.7962 22.4378 77.9708 21.7951 79.0244C21.5629 79.4309 21.1998 79.7466 20.7649 79.9199C20.3301 80.0932 19.8493 80.1138 19.4012 79.9784C18.8565 79.7365 18.4068 79.3217 18.1219 78.7982C17.837 78.2747 17.7328 77.6719 17.8254 77.0831C17.918 76.4943 18.2022 75.9526 18.6341 75.5418C19.0659 75.1311 19.6212 74.8743 20.2139 74.8113C23.1258 74.2403 25.4432 76.573 27.3214 78.4403C31.5958 82.6948 36.4307 86.7486 42.3548 88.3893C47.8383 89.908 54.2592 88.9969 58.3741 84.8366C59.0933 84.1118 57.9174 83.0441 57.2009 83.7687C53.1198 87.8971 46.56 88.2932 41.3298 86.4091C38.2274 85.2198 35.3515 83.5081 32.8267 81.3483C31.5097 80.2648 30.2548 79.108 29.0383 77.9135C27.8981 76.6946 26.6519 75.5794 25.3146 74.5809C23.0578 73.0395 19.7647 72.4215 17.5426 74.3937C15.4669 76.233 15.9399 80.1294 18.505 81.3164C19.0713 81.5581 19.6887 81.6555 20.302 81.6C20.9152 81.5445 21.5052 81.3378 22.0189 80.9983C22.5326 80.6589 22.9542 80.1973 23.2458 79.655C23.5373 79.1126 23.6899 78.5064 23.6897 77.8907C23.6942 76.5487 22.9939 75.0859 22.4686 73.8764C20.8924 70.2333 18.5193 66.9902 15.5238 64.3858C12.5283 61.7814 8.98689 59.8819 5.16018 58.8273C4.17262 58.566 3.84522 60.1181 4.83047 60.3776Z" fill="var(--fill-0, #CCCCCC)"/>
<path id="Vector_4" d="M107.059 24.7968C104.038 23.9528 101.26 22.405 98.9531 20.2802C96.6461 18.1554 94.8755 15.5141 93.7863 12.5729C93.4828 11.74 93.0544 10.8049 93.5652 9.96832C93.7498 9.645 94.0387 9.39387 94.3845 9.256C94.7304 9.11812 95.1128 9.10165 95.4692 9.20927C95.9009 9.40291 96.2569 9.73317 96.4822 10.1491C96.7076 10.5651 96.7899 11.0436 96.7164 11.511C96.6428 11.9783 96.4176 12.4085 96.0754 12.7352C95.7332 13.0619 95.2931 13.2669 94.8228 13.3186C92.5072 13.7714 90.6646 11.9178 89.1697 10.4324C85.7701 7.04857 81.9247 3.82442 77.2109 2.51873C72.8523 1.31088 67.7425 2.03495 64.4697 5.34403C63.8969 5.92303 64.8325 6.77153 65.4024 6.19327C68.6478 2.91145 73.8654 2.59177 78.0252 4.09291C80.4928 5.039 82.7803 6.40055 84.7884 8.11856C85.836 8.98008 86.8339 9.90058 87.8016 10.8524C88.7083 11.8218 89.6993 12.7089 90.7629 13.503C92.558 14.7295 95.1747 15.2198 96.943 13.6514C97.3283 13.2726 97.6196 12.8089 97.7936 12.2974C97.9677 11.7859 98.0196 11.2407 97.9452 10.7056C97.8709 10.1704 97.6723 9.66006 97.3654 9.21538C97.0585 8.77069 96.6517 8.404 96.1777 8.14464C95.7273 7.95232 95.2362 7.87473 94.7484 7.9188C94.2606 7.96288 93.7914 8.12726 93.3827 8.39721C92.9741 8.66716 92.6388 9.03426 92.4068 9.46563C92.1749 9.89699 92.0535 10.3791 92.0537 10.8689C92.1668 11.9862 92.4967 13.0707 93.0248 14.0617C94.2789 16.9598 96.1672 19.5396 98.5505 21.6111C100.934 23.6826 103.752 25.193 106.796 26.0312C107.582 26.2394 107.842 25.0039 107.059 24.7968Z" fill="var(--fill-0, #CCCCCC)"/>
<path id="Vector_5" d="M101.556 64.4878L97.8799 63.706L95.3109 75.7853L98.987 76.5672L101.556 64.4878Z" fill="var(--fill-0, #CCCCCC)"/>
<path id="Vector_6" d="M43.8949 43.4216L46.9948 41.4079L40.379 31.2233L37.2791 33.2369L43.8949 43.4216Z" fill="var(--fill-0, #B3B3B3)"/>
<path id="Vector_7" d="M15.2632 173.008L17.2768 176.108L27.4615 169.492L25.4479 166.392L15.2632 173.008Z" fill="var(--fill-0, #FF6584)"/>
</g>
</svg>
