<svg preserveAspectRatio="none" width="100%" height="100%" overflow="visible" style="display: block;" viewBox="0 0 106.597 176.049" fill="none" xmlns="http://www.w3.org/2000/svg">
<g id="Group">
<path id="Vector" d="M76.5642 134.264C79.413 133.554 81.1466 130.669 80.4363 127.82C79.726 124.971 76.8408 123.237 73.9919 123.948C71.1431 124.658 69.4095 127.543 70.1197 130.392C70.83 133.241 73.7153 134.975 76.5642 134.264Z" fill="var(--fill-0, #FEB05D)"/>
<path id="Vector_2" d="M29.2954 8.28721C31.3302 7.77988 32.5684 5.71909 32.0611 3.68431C31.5538 1.64952 29.493 0.411271 27.4582 0.9186C25.4234 1.42593 24.1852 3.48672 24.6925 5.52151C25.1998 7.55629 27.2606 8.79454 29.2954 8.28721Z" fill="var(--fill-0, #FF6584)"/>
<path id="Vector_3" d="M51.1613 107.724C53.1961 107.217 54.4344 105.156 53.927 103.121C53.4197 101.087 51.3589 99.8484 49.3241 100.356C47.2893 100.863 46.0511 102.924 46.5584 104.959C47.0658 106.993 49.1265 108.232 51.1613 107.724Z" fill="var(--fill-0, #FEB05D)"/>
<path id="Vector_4" d="M70.6484 167.046C72.6832 166.539 73.9214 164.478 73.4141 162.443C72.9068 160.409 70.846 159.17 68.8112 159.678C66.7764 160.185 65.5382 162.246 66.0455 164.281C66.5528 166.315 68.6136 167.554 70.6484 167.046Z" fill="var(--fill-0, #E6E6E6)"/>
<path id="Vector_5" d="M5.52151 43.965C7.55629 43.4577 8.79454 41.3969 8.28721 39.3621C7.77988 37.3273 5.71909 36.0891 3.68431 36.5964C1.64952 37.1037 0.411271 39.1645 0.918601 41.1993C1.42593 43.2341 3.48672 44.4723 5.52151 43.965Z" fill="var(--fill-0, #CCCCCC)"/>
<path id="Vector_6" d="M106.004 111.933C103.004 110.913 100.288 109.197 98.0792 106.925C95.8705 104.653 94.2316 101.89 93.297 98.8627C93.0365 98.0033 92.6573 97.0385 93.219 96.223C93.4233 95.9071 93.7287 95.67 94.0852 95.5502C94.4418 95.4305 94.8284 95.4352 95.1819 95.5636C95.6065 95.783 95.9471 96.136 96.1512 96.5682C96.3554 97.0003 96.4117 97.4876 96.3115 97.9549C96.2114 98.4222 95.9603 98.8436 95.5969 99.1541C95.2336 99.4646 94.7783 99.647 94.3011 99.6731C91.9395 100.002 90.1822 98.0274 88.76 96.4467C85.5162 92.8472 81.8191 89.3772 77.1372 87.7972C72.8038 86.3351 67.6119 86.7821 64.1263 89.9377C63.5168 90.49 64.413 91.3956 65.0219 90.8464C68.4784 87.7165 73.7617 87.6875 77.8723 89.4313C80.3087 90.5228 82.5403 92.0234 84.4703 93.8681C85.4793 94.7953 86.4343 95.7794 87.3579 96.792C88.219 97.8205 89.1697 98.7705 90.1987 99.6309C91.9412 100.968 94.5533 101.609 96.4259 100.125C96.8355 99.7645 97.155 99.313 97.3589 98.8068C97.5628 98.3006 97.6455 97.7537 97.6002 97.2098C97.555 96.6659 97.3832 96.1402 97.0984 95.6746C96.8137 95.209 96.424 94.8165 95.9605 94.5284C95.5167 94.309 95.0255 94.2031 94.5308 94.2203C94.0361 94.2374 93.5534 94.377 93.126 94.6265C92.6985 94.8761 92.3396 95.2278 92.0814 95.6501C91.8233 96.0725 91.674 96.5523 91.6469 97.0465C91.6986 98.1798 91.9709 99.2922 92.4484 100.321C93.5522 103.315 95.3136 106.023 97.6027 108.245C99.8919 110.468 102.65 112.148 105.675 113.163C106.456 113.417 106.788 112.186 106.009 111.933L106.004 111.933Z" fill="var(--fill-0, #CCCCCC)"/>
<path id="Vector_7" d="M14.2594 86.1091L17.4585 88.0314L23.7742 77.5203L20.5751 75.598L14.2594 86.1091Z" fill="var(--fill-0, #B3B3B3)"/>
<path id="Vector_8" d="M13.7851 174.763C16.634 174.053 18.3676 171.167 17.6573 168.319C16.947 165.47 14.0618 163.736 11.2129 164.446C8.36408 165.157 6.63044 168.042 7.34074 170.891C8.05104 173.74 10.9363 175.473 13.7851 174.763Z" fill="var(--fill-0, #FEB05D)"/>
</g>
</svg>
