<svg preserveAspectRatio="none" width="100%" height="100%" overflow="visible" style="display: block;" viewBox="0 0 57.235 58.3376" fill="none" xmlns="http://www.w3.org/2000/svg">
<g id="Group">
<path id="Vector" d="M2.35026 58.3376C1.72738 58.3356 1.1306 58.0872 0.690285 57.6466C0.249967 57.206 0.0018898 56.6091 0.000239872 55.9862C-0.00250321 55.8013 0.0182901 55.6167 0.0621192 55.437L12.2294 1.83765C12.3216 1.43386 12.5183 1.06137 12.7998 0.757513C13.0812 0.453652 13.4376 0.229077 13.8332 0.10628C14.2287 -0.0165166 14.6496 -0.0332249 15.0537 0.0578289C15.4577 0.148883 15.8308 0.344502 16.1354 0.625096L56.478 37.9807C56.7816 38.2621 57.006 38.6183 57.1287 39.0137C57.2514 39.409 57.2682 39.8296 57.1773 40.2335C57.0864 40.6374 56.8911 41.0103 56.6109 41.3149C56.3306 41.6196 55.9753 41.8453 55.5804 41.9695L3.05944 58.232C2.82959 58.3021 2.59059 58.3377 2.35026 58.3376Z" fill="var(--fill-0, #3F3D56)"/>
<path id="Vector_2" d="M35.3467 19.1548L10.0061 14.112L10.4052 12.3523L32.8111 16.8062L35.3467 19.1548Z" fill="var(--fill-0, white)"/>
<path id="Vector_3" d="M55.3003 37.6387L6.85021 27.998L7.24929 26.2292L52.7605 35.2803L55.3003 37.6387Z" fill="var(--fill-0, white)"/>
<path id="Vector_4" d="M37.9669 46.8538L34.3306 47.9781L3.70247 41.8833L4.10086 40.1145L37.9669 46.8538Z" fill="var(--fill-0, white)"/>
</g>
</svg>
