<svg preserveAspectRatio="none" width="100%" height="100%" overflow="visible" style="display: block;" viewBox="0 0 402.186 33.2296" fill="none" xmlns="http://www.w3.org/2000/svg">
<path id="Vector 1" d="M9.03502 1.00107C17.4482 -1.69065 23.1911 1.81314 30.9958 2.58444C48.177 4.3179 70.834 4.23197 88.4063 5.01556C101.707 5.58681 115.222 6.27757 128.442 6.90077C129.12 6.93271 129.524 7.18182 129.832 7.19607C132.726 7.32959 137.58 7.30351 140.452 7.44255C146.492 7.73034 157.001 8.09427 162.534 8.49107C164.883 8.65855 167.293 8.78118 168.206 9.28998C169.064 9.3432 169.533 8.93013 169.757 8.91513C169.759 8.91564 169.762 8.91616 169.764 8.91667C170.486 8.87101 172.309 9.23476 172.712 9.22976C172.772 9.22905 172.402 8.90907 173.378 9.03691C173.464 9.04795 173.384 9.25305 174.206 9.28477C174.42 9.2921 177.169 9.07494 177.954 9.08569C180.568 9.12119 186.811 9.58795 189.936 9.69364C190.414 9.71068 190.69 9.60815 191.194 9.62457C191.455 9.63297 191.846 9.76849 191.926 9.77064C192.278 9.77811 193.814 9.28689 193.263 10.3469C194.866 10.3317 194.394 9.96167 194.43 9.73198C196.171 9.76348 197.01 10.292 197.465 9.77981C206.026 10.1578 214.588 10.5278 223.149 10.8898C223.152 10.8146 223.154 10.7394 223.157 10.6642C225.68 11.0549 226.546 10.5865 227.987 11.0657C228.875 11.0039 229.763 10.9435 230.652 10.8846C253.482 11.9977 276.258 12.5258 298.831 13.4006C299.783 13.4367 300.021 13.5372 301.592 13.5954C303.327 13.6589 305.767 13.6482 308.053 13.7368C310.058 13.8142 313.017 14.0018 315.253 14.0948C315.758 14.1158 316.123 14.0805 316.18 14.0829C316.514 14.0973 316.531 14.1748 316.855 14.1887C317.242 14.2052 317.711 14.166 318.159 14.1862C319.833 14.2603 321.657 14.3089 321.869 14.3181C322.889 14.363 323.115 14.4405 323.199 14.4442C324.334 14.4936 323.909 14.4163 324.191 14.4302C325.659 14.5045 326.696 14.688 328.705 14.6196C328.65 14.6716 328.596 14.7236 328.541 14.7758C330.078 14.8585 329.063 14.6816 329.377 14.6668C329.505 14.662 332.815 14.7985 333.07 14.8099C333.959 14.8506 333.983 14.9178 334.059 14.9214C334.247 14.9292 336.483 14.9353 337.63 15.0313C338.986 15.1429 337.389 15.2159 337.726 15.2516C337.783 15.2573 339.203 15.2897 339.394 15.3346C339.604 15.383 338.376 15.3445 338.395 15.363C338.409 15.3765 340.448 15.5227 340.057 15.5685C339.742 15.6181 336.976 15.4664 336.39 15.4781C336.293 15.4802 336.476 15.5607 336.39 15.5611C336.046 15.562 329.672 15.3981 329.38 15.3765C329.712 15.3472 330.044 15.3184 330.376 15.2901C329.934 15.274 329.493 15.2578 329.052 15.2416C329.679 15.2285 330.307 15.2163 330.934 15.2049C330.002 14.8681 327.193 15.0946 327.077 15.2575C327.027 15.3325 328.744 15.5626 327.146 15.6374C327.389 15.6619 327.632 15.6862 327.875 15.7103C328.376 15.6899 328.876 15.67 329.377 15.6508C329.044 15.6241 328.71 15.5971 328.377 15.5698C328.499 15.5506 328.622 15.5316 328.745 15.5126C329.681 15.5001 330.617 15.489 331.553 15.4792C332.034 15.5072 331.934 15.5665 332.264 15.5865C336.389 15.8332 333.699 15.5814 336.399 15.6749C336.785 15.7156 337.17 15.7557 337.556 15.7952C337.42 15.6655 338.616 15.7732 340.063 15.7556C339.89 15.7907 339.717 15.8261 339.544 15.8619C341.64 15.8926 345.889 16.1705 344.742 15.944C345.222 15.9725 345.703 16.0005 346.183 16.0281C346.588 16.0052 346.994 15.9831 347.399 15.9616C347.96 15.9788 348.52 15.9959 349.081 16.0129C349.084 16.0294 349.086 16.0459 349.089 16.0624C348.642 16.0522 348.195 16.0419 347.748 16.0316C348.083 16.0908 348.419 16.149 348.754 16.2062C349.084 16.2045 349.414 16.203 349.744 16.2017C348.36 16.1253 350.184 16.087 350.626 16.0347C351.792 16.0402 352.538 16.1393 352.929 16.1515C353.113 16.1563 355.278 16.0723 354.429 16.2015C355.544 16.2088 356.658 16.2174 357.772 16.2273C358.208 16.2484 358.644 16.2693 359.079 16.2898C358.134 16.3329 360.874 16.4648 358.855 16.4503C357.348 16.4412 356.976 16.3728 356.261 16.3583C355.616 16.3453 355.275 16.3815 354.573 16.37C349.854 16.2908 346.009 16.2106 341.526 16.0974C340.641 16.0748 339.835 16.087 339.241 16.0716C338.569 16.0538 339.41 15.9977 338.555 15.9981C337.656 15.9986 337.462 16.0559 337.225 16.0526C337.077 16.0506 336.609 15.9862 336.178 15.9775C334.408 15.9414 331.815 15.9475 331.563 15.9429C331.279 15.9377 326.274 15.784 326.034 15.7676C325.907 15.7597 326.17 15.5251 325.067 15.7583C324.723 15.7562 324.379 15.7542 324.035 15.7523C324.091 15.7046 324.146 15.657 324.202 15.6094C322.163 15.7522 322.864 15.664 320.899 15.638C316.192 15.5801 309.25 15.394 304.102 15.3097C302.953 15.2912 302.515 15.3569 301.155 15.3361C299.892 15.3184 296.593 15.0182 297.31 15.3567C294.499 15.0184 294.047 15.5065 292.64 15.1675C292.47 15.2101 292.3 15.2529 292.129 15.2959C290.602 15.0691 290.13 15.2339 288.462 15.2293C287.744 15.2273 288.572 15.0232 287.122 15.2408C286.844 15.2176 286.567 15.1943 286.29 15.1708C286.354 15.1184 286.419 15.0661 286.483 15.0138C284.872 15.026 284.768 14.9964 284.952 15.2027C284.174 15.1519 283.396 15.1003 282.619 15.048C282.522 15.1142 282.425 15.1804 282.329 15.2469C282.701 15.3798 300.363 15.4887 302.823 15.4906C305.707 15.6676 311.502 15.6162 313.832 15.689C314.765 15.717 315.177 15.8365 316.534 15.8719C317.891 15.9069 319.598 15.8385 320.32 15.8485C322.727 15.8816 334.13 16.0956 326.375 16.085C326.598 16.1361 326.82 16.1867 327.043 16.2369C330.125 16.1226 329.009 16.206 331.566 16.2581C332.643 16.2794 335.203 16.2243 335.06 16.4128C333.061 16.423 330.937 16.3324 329.199 16.3111C329.027 16.3084 326.969 16.3786 325.91 16.3393C324.954 16.3036 325.612 16.0999 323.533 16.3104C321.989 16.0547 321.096 16.2559 320.689 16.2757C319.984 16.3077 319.907 16.1864 319.202 16.1624C318.435 16.136 317.906 16.2108 317.801 16.2101C316.749 16.1982 311.267 16.1407 311.015 16.0831C311.236 16.0623 311.456 16.0417 311.677 16.0212C310.253 15.9628 310.551 16.1044 310.176 16.1162C309.897 16.1121 309.619 16.108 309.34 16.104C309.451 16.0765 309.561 16.0491 309.671 16.0218C307.99 16.0049 309.277 16.123 306.89 16.0902C305.375 16.07 303.809 15.9329 303.662 15.9391C303.618 15.9411 304.096 16.0262 303.478 16.0288C302.455 16.0331 300.687 16.0094 300.489 15.8955C299.988 15.9042 300.031 16.014 299.964 16.0156C299.674 16.0221 294.67 15.999 293.774 15.9956C291.29 15.985 288.525 15.9265 285.834 15.9151C285.558 15.9139 285.734 15.8363 285.457 15.8354C285.012 15.8333 282.727 15.9331 282.385 15.939C281.533 15.9519 279.292 15.8746 278.94 15.9088C278.889 15.9139 279.627 16.0352 278.765 16.0619C277.807 16.0917 278.323 15.9425 278.271 15.9405C276.322 15.8658 275.092 15.9609 273.762 15.9691C273.33 15.9718 272.535 15.8421 271.927 15.8712C271.857 15.8746 271.995 15.9888 271.927 15.9936C271.007 16.0442 270.147 15.8242 269.75 15.8054C268.776 15.7607 269.306 15.9243 269.256 15.9248C268.607 15.9233 267.735 15.8568 266.749 15.8538C262.353 15.8413 258.766 15.8159 254.093 15.7556C253.506 15.7484 252.809 15.6161 252.72 15.6148C252.442 15.6126 252.522 15.7605 251.719 15.7491C250.028 15.724 248.46 15.7151 246.785 15.695C246.448 15.691 246.304 15.5475 246.047 15.5415C245.185 15.5208 242.245 15.871 242.197 15.396C240.485 15.7982 239.348 15.4231 237.971 15.4096C234.709 15.3804 229.6 15.4158 226.348 15.3204C225.663 15.3 225.342 15.1618 224.961 15.1499C224.278 15.1278 220.372 15.1575 220.168 15.1337C219.767 15.0879 220.007 14.4772 217.945 14.9855C216.736 15.0089 216.879 14.7561 216.629 14.7389C214.68 14.6072 212.784 15.1612 213.138 14.635C210.869 14.7462 209.399 15.0307 208.473 14.5091C208.485 14.757 207.418 14.8935 206.132 14.7817C207.448 14.3771 207.286 14.1092 210.47 14.2362C210.52 14.2382 210.425 14.4144 210.475 14.4164C210.93 14.4351 211.878 14.3602 212.654 14.3818C213.429 14.4032 212.998 14.5165 213.309 14.5188C213.593 14.5205 213.583 14.3531 213.994 14.3571C215.328 14.3713 216.508 14.3444 217.267 14.3537C217.745 14.3597 218.28 14.5116 218.651 14.5171C220.085 14.537 223.124 14.4742 224.949 14.5184C225.329 14.5279 225.169 14.6803 226.001 14.7053C226.098 14.7082 226.453 14.5529 227.181 14.5314C227.91 14.51 228.474 14.5977 228.942 14.5886C229.333 14.581 229.17 14.4382 229.972 14.4428C230.64 14.4478 238.212 14.6695 238.623 14.696C239.215 14.736 239.496 14.9253 239.857 14.908C239.92 14.9041 240.028 14.7274 240.248 14.7182C243.878 14.5692 251.913 14.9386 256.061 14.9977C264.732 15.1302 272.731 15.1702 281.479 15.2864C281.635 15.266 281.791 15.2456 281.947 15.2253C281.062 15.2092 280.178 15.1931 279.294 15.1769C279.288 15.1133 279.283 15.0496 279.277 14.9859C278.082 14.9532 278.24 15.108 278.274 15.2C277.831 15.1537 277.389 15.107 276.947 15.0598C276.565 15.279 273.615 15.0793 272.094 15.0522C271.105 15.0348 269.928 15.1055 269.406 15.09C268.304 15.0572 268.333 14.9085 268.246 14.9046C268.099 14.8983 266.56 15.0037 265.451 14.9802C263.81 14.946 263.632 14.7039 261.387 14.8676C258.509 14.6924 255.32 14.697 252.218 14.6653C252.809 14.4393 250.029 14.6129 248.775 14.5882C241.127 14.4307 231.727 14.1523 223.979 13.8918C222.983 13.8591 222.231 13.6771 221.676 13.6714C221.375 13.6681 221.244 13.8638 220.826 13.8297C220.753 13.8232 220.702 13.6364 219.924 13.5924C217.989 13.4794 213.168 13.706 211.948 13.3077C205.331 13.2269 198.714 13.1521 192.097 13.0834C191.93 12.9921 191.764 12.9005 191.598 12.8088C190.341 13.2336 185.371 12.8699 182.948 12.8401C178.683 12.7918 173.241 12.8352 169.504 12.7805C168.692 12.7686 168.026 12.6135 167.258 12.6009C166.927 12.5957 166.516 12.773 166.171 12.7675C162.307 12.709 157.075 12.4104 153.181 12.336C144.34 12.1707 136.013 11.9735 127.055 11.8038C96.8773 11.2204 66.8734 11.0312 36.9532 10.303C36.5521 10.293 36.5721 9.96246 36.2613 9.95387C34.4262 9.89998 30.3282 10.095 28.2557 10.0405C26.6044 9.99804 23.9835 9.42201 23.4153 9.93828C29.2816 10.848 35.4795 10.8882 41.5866 11.2072C42.0207 11.2296 42.0747 11.5403 42.1281 11.5468C43.1168 11.6702 42.4925 11.2338 43.9262 11.2389C44.4054 11.2437 48.8315 12.2877 48.3049 11.311C49.3649 11.7181 56.8369 12.0218 58.2789 11.9193C58.7168 11.8882 58.4067 11.6049 58.4937 11.5922C58.8711 11.537 59.0415 11.9233 59.3789 11.9383C60.2781 11.9756 62.5651 11.7034 62.9997 11.7132C63.9995 11.7338 66.997 12.0876 68.3173 12.036C69.5273 11.9898 69.3008 11.5979 70.347 11.5803C71.1716 11.5673 70.2734 11.8782 72.1145 12.0057C73.0269 12.0676 76.219 11.8892 76.9948 11.9027C77.7703 11.9157 78.633 12.156 79.7027 12.1555C81.2435 12.1553 84.5954 12.0852 86.1633 12.0409C86.2569 12.0384 86.485 11.7556 86.7156 11.7657C87.1934 11.7861 87.0499 12.1368 87.4106 12.1785C87.7716 12.22 94.023 12.2786 95.0848 12.2999C95.8166 12.3136 96.322 12.1176 96.7264 12.1264C97.0438 12.1337 97.0777 12.4192 97.4015 12.4275C97.5017 12.4289 98.3549 12.196 99.2072 12.2163C100.013 12.2362 103.071 12.5181 103.425 12.5253C103.655 12.53 103.403 12.3276 104.085 12.3437C104.706 12.359 105.114 12.6217 105.468 12.6309C106.29 12.6519 107.209 12.4495 108.081 12.4631C110.588 12.5019 110.459 12.8107 110.61 12.8232C111.027 12.8576 111.194 12.5756 111.331 12.5721C111.909 12.5575 113.325 12.5285 113.841 12.5262C114.482 12.5233 114.754 12.7949 115.436 12.8063C115.944 12.8139 116.971 12.5714 118.13 12.5785C120.744 12.5922 123.853 12.5969 126.42 12.6498C127.185 12.6654 127.303 12.9004 127.537 12.9102C128.766 12.9614 129.455 12.7137 129.806 12.7232C132.309 12.7904 136.775 13.2599 139.098 13.3262C140.045 13.3529 144.186 13.238 146.523 13.3069C146.79 13.3143 146.54 13.4803 146.837 13.4582C147.549 13.4052 147.483 13.0595 147.844 13.076C148.018 13.085 148.415 13.2854 148.922 13.3125C151.553 13.4529 153.362 13.3322 154.562 13.3619C166.087 13.643 177.84 13.9013 188.603 14.088C189.803 14.1081 191.291 13.9618 193.103 14.1533C193.159 14.2421 193.215 14.3308 193.27 14.4195C193.334 14.334 193.397 14.2486 193.46 14.1632C195.513 14.147 196.288 14.0506 198.384 14.1903C198.564 14.2025 199.115 14.6 199.456 14.1214C201.532 14.5025 200.393 14.1326 201.934 14.1251C203.475 14.1177 204.972 14.247 206.466 14.2931C207.285 14.4709 203.849 14.8116 203.625 14.8093C203.264 14.8034 202.889 14.5624 202.542 14.5449C201.512 14.4926 200.517 14.6688 200.286 14.452C198.956 14.66 200.612 14.5696 200.446 14.7706C199.558 14.6754 198.67 14.579 197.782 14.4816C197.33 15.1796 192.425 14.1931 192.765 14.7409C192.375 14.6267 191.985 14.5118 191.595 14.3964C189.884 15.0646 188.877 14.5696 186.595 14.3264C186.76 14.419 186.924 14.5113 187.089 14.6035C187.042 14.6403 185.028 14.7607 185.748 14.3833C183.683 14.8681 183.77 14.0145 181.919 14.611C180.819 14.6776 181.48 14.3236 179.511 14.3031C178.345 14.2905 176.897 14.4644 175.593 14.4622C175.293 14.461 175.162 14.2435 174.895 14.2399C174.628 14.2363 174.497 14.4468 174.174 14.4482C173.505 14.4515 172.639 14.2905 172.221 14.2994C171.846 14.3068 171.311 14.4895 170.409 14.5088C167.257 14.5777 168.209 14.3146 167.712 14.2151C167.177 14.1086 166.792 14.4674 165.726 14.4125C165.619 14.4066 165.896 14.1823 165.548 14.1866C165.268 14.19 165.127 14.4362 164.198 14.4719C163.828 14.4859 158.088 14.4731 157.213 14.468C155.873 14.4602 152.887 14.2048 151.5 14.1884C150.965 14.1816 150.394 14.3864 149.826 14.3786C147.944 14.3521 144.931 14.299 142.544 14.2604C140.395 14.2281 136.622 13.6875 135.446 14.1192C132.428 14.1424 131.695 13.7462 131.467 13.7376C130.852 13.7148 130.567 13.9688 129.792 13.9715C119.747 14.003 106.52 13.6685 97.0072 13.5716C74.9392 13.3531 52.751 13.2802 30.6061 12.8793C30.5468 13.0349 30.4875 13.1906 30.4282 13.3464C33.0455 13.4756 36.1214 13.7746 38.7053 13.8592C42.1548 13.9674 47.272 13.401 49.8023 14.4377C48.7761 14.5189 47.1043 14.1139 47.1343 14.6391C48.9687 14.6903 50.8031 14.741 52.6375 14.791C52.5828 14.5519 52.5281 14.3127 52.4734 14.0734C54.3887 14.0218 56.3477 14.0919 58.2697 14.0761C58.6035 14.0737 58.3671 13.8583 58.6578 13.8601C58.9831 13.8626 58.7626 14.077 58.8235 14.0794C59.6456 14.0891 59.8938 13.873 59.9941 13.8772C60.2515 13.8884 60.0514 14.0944 60.7935 14.1594C62.1701 14.2799 63.1558 13.7412 62.8324 14.6508C63.2768 14.6543 63.7213 14.6578 64.1657 14.6612C64.2807 14.4147 64.3958 14.1684 64.5109 13.9223C67.2445 14.9406 68.505 13.2194 70.0156 14.6034C70.5138 14.3987 71.0119 14.195 71.51 13.9922C71.7907 14.2371 72.0715 14.4813 72.3523 14.725C72.407 14.5182 72.4617 14.3115 72.5164 14.1049C75.2003 14.2826 78.0579 14.0634 80.6248 14.1131C82.4128 14.1471 82.8412 14.2304 84.425 14.2305C87.948 14.2297 84.4495 14.5941 87.3769 15.0415C87.2245 14.7979 87.0721 14.554 86.9197 14.3097C87.4045 14.2253 87.8893 14.1413 88.3741 14.0577C88.7117 14.2584 89.0492 14.4584 89.3867 14.6578C90.8839 13.6535 91.8539 14.4851 92.0578 14.4854C92.2225 14.4844 92.7881 13.8845 94.5601 14.414C93.8253 13.5813 95.9118 14.423 96.079 14.4282C96.2378 14.4327 98.2692 14.2697 99.0937 14.2859C99.7423 14.2983 101.126 14.4859 102.092 14.4861C102.944 14.4865 102.858 14.2133 102.92 14.211C103.97 14.1992 103.312 14.4039 104.071 14.4216C104.829 14.439 105.418 14.2145 105.582 14.2369C105.664 14.2486 105.389 14.4976 105.766 14.5254C106.779 14.6006 108.611 14.3991 109.77 14.4174C110.181 14.4236 110.699 14.6384 111.157 14.6489C111.859 14.6642 112.187 14.3901 112.595 14.4025C112.737 14.4079 113.642 14.8429 114.767 14.7869C114.981 14.7745 115.61 13.8879 116.446 15.1606C116.51 14.9831 116.575 14.8057 116.639 14.6285C120.413 14.2307 121.463 15.6585 123.141 14.4179C125.881 14.5854 124 15.0517 124.301 15.1297C124.495 15.1781 125.389 15.0518 125.487 15.0603C125.661 15.0765 125.631 15.2316 125.821 15.2321C129.314 15.2295 127.763 14.9272 128.87 14.7531C131.5 14.3445 133.553 15.3231 128.977 14.9959C128.977 15.0815 128.977 15.1671 128.977 15.2527C130.104 15.1796 132.964 15.2401 132.009 15.662C131.257 15.9952 124.472 15.7408 128.314 16.2397C129.187 16.3509 129.639 16.0346 131.15 16.6371C132.149 16.6711 132.293 15.9018 133.646 16.2162C133.423 15.9478 133.201 15.6788 132.978 15.4091C134.824 15.0743 137.1 15.5564 138.517 15.4176C138.999 15.3687 140.733 14.1406 140.329 15.3804C141.139 15.3097 144.952 15.5635 145.66 15.4586C145.831 15.433 146.053 14.7879 148.519 15.0356C148.69 15.1175 148.861 15.1993 149.033 15.2808C146.777 15.498 150.76 15.7623 149.678 16.3606C149.311 16.0874 147.522 15.911 147.234 15.7707C146.743 15.5292 148.207 15.2336 146.342 15.3028C145.166 16.3221 148.528 15.8687 148.014 16.8335C150.463 16.3885 150.707 16.8188 151.262 16.8366C153.632 16.9123 155.123 16.8152 157.359 16.928C157.904 16.7391 153.856 16.4491 153.354 16.5305C155.2 15.8505 152.024 15.8004 150.683 16.2077C150.571 15.9965 150.458 15.7851 150.346 15.5733C152.091 15.6998 153.793 15.7667 155.521 15.6087C155.633 15.6867 155.746 15.7647 155.858 15.8425C155.471 15.9564 155.083 16.0708 154.695 16.1858C156.133 16.3823 155.271 15.7779 157.185 16.3121C157.245 16.0812 157.304 15.8505 157.363 15.62C159.199 15.7092 161.035 15.7967 162.871 15.8825C163.827 15.4358 167.36 15.6317 166.713 16.2023C168.139 16.2499 166.379 15.9341 167.715 15.8022C168.296 15.7452 169.433 15.7363 169.714 15.8911C169.593 16.4321 167.892 16.4933 167.377 16.8686C167.689 16.9877 175.6 16.6226 174.895 17.2411C175.527 17.3157 175.236 16.9963 176.375 16.917C179.568 16.7026 184.512 17.313 187.083 16.5671C184.064 16.1367 183.172 16.5768 180.858 16.5896C179.381 16.5963 170.373 16.6452 172.385 16.0843C172.054 16.1545 171.723 16.225 171.392 16.2959C171.058 16.1251 170.723 15.9535 170.389 15.7812C171.331 15.7629 172.274 15.7449 173.216 15.7271C173.441 15.8963 173.666 16.065 173.892 16.2331C173.995 16.1143 174.099 15.9956 174.203 15.8771C174.6 15.8559 174.997 15.8348 175.394 15.8139C175.282 15.9556 175.171 16.0976 175.059 16.2398C175.671 16.267 176.282 16.2941 176.894 16.3209C176.729 16.1311 176.565 15.9408 176.4 15.7502C179.281 15.7222 178.305 15.8351 179.903 16.1931C181.095 16.2352 179.08 15.8644 181.604 15.7906C184.539 15.7064 182.613 16.2555 186.414 16.1558C186.469 16.0657 186.523 15.9757 186.578 15.8857C187.414 15.9815 188.249 16.0762 189.085 16.1699C188.974 16.0583 188.864 15.9466 188.754 15.8346C190.478 15.8884 192.855 15.6978 193.427 16.1278C191.678 15.9109 191.696 16.6623 192.15 16.8011C193.089 17.0845 206.952 16.8486 209.639 16.8432C213.075 16.8318 215.672 17.0463 218.81 16.7315C216.684 16.4587 209.204 16.6508 207.787 16.4534C207.647 16.4343 207.686 15.7962 206.784 16.5099C203.876 16.3746 200.4 16.5672 196.767 16.5336C196.878 16.3406 196.989 16.1479 197.1 15.9556C199.333 16.3762 201.399 15.5007 201.109 16.2355C201.553 16.2379 201.997 16.2402 202.442 16.2425C202.442 16.1167 202.442 15.9908 202.442 15.865C203.112 15.8698 203.782 15.8746 204.452 15.8794C204.452 16.0039 204.452 16.1285 204.452 16.2531C205.007 16.256 205.561 16.259 206.116 16.2619C206.174 16.139 206.232 16.0162 206.29 15.8936C207.951 16.1569 213.616 15.528 211.125 16.2277C211.906 16.2321 212.686 16.2364 213.467 16.2408C213.464 16.1538 213.462 16.0669 213.459 15.9799C213.795 15.9705 214.13 15.9613 214.465 15.952C214.355 16.0295 214.245 16.1072 214.134 16.1849C215.671 16.0553 217.129 16.4706 218.138 16.2096C217.473 16.1477 216.807 16.0851 216.141 16.022C217.418 16.141 219.77 15.9289 219.981 15.9308C220.623 15.9346 220.961 16.1059 221.656 16.1189C222.284 16.1302 222.198 16.0008 222.315 16.0062C225.7 16.1622 224.41 16.8348 225.991 16.0354C226.159 16.147 226.327 16.2583 226.495 16.3692C226.719 16.2786 226.943 16.1883 227.167 16.0983C228.167 16.1138 229.167 16.1291 230.167 16.1442C229.833 16.0073 229.5 15.8696 229.166 15.7311C230.665 15.6849 231.364 15.9597 231.509 15.9667C231.92 15.9854 232.108 15.8192 232.235 15.8201C238.342 15.8859 234.633 16.0052 237.684 16.633C238.773 16.3993 237.672 16.1555 237.517 15.91C238.964 16.0358 239.416 15.9719 240.943 15.9978C241.34 16.0047 241.768 16.136 242.019 16.1394C242.236 16.1424 242.915 16.0123 243.436 16.0161C244.305 16.0223 245.462 16.1108 246.652 16.1176C247.641 16.1227 250.67 16.0548 252.783 16.0718C253.684 16.0792 253.475 16.1828 253.708 16.1848C253.805 16.1854 254.507 16.0652 255.085 16.0697C259.802 16.1072 264.635 16.2215 269.375 16.2554C272.714 16.2794 276.108 16.2202 279.453 16.2578C280.165 16.2658 279.789 16.3389 280.099 16.344C280.206 16.3454 280.335 16.2141 281.436 16.2766C281.833 16.2989 281.376 16.387 281.767 16.3945C281.957 16.3981 282.038 16.2838 283.151 16.2676C285.173 16.2387 286.26 16.3962 286.44 16.3927C286.781 16.3869 286.681 16.295 287.132 16.2957C289.338 16.2988 291.18 16.3004 293.148 16.311C294.067 16.3155 300.405 16.3569 300.753 16.3746C301.532 16.4134 300.807 16.5739 301.806 16.5755C302.085 16.5356 302.365 16.4961 302.645 16.457C302.2 16.4217 301.756 16.386 301.312 16.3499C302.535 16.4143 303.922 16.3523 304.828 16.3642C304.995 16.3667 306.535 16.4529 307.321 16.4517C306.987 16.4781 306.653 16.5049 306.319 16.5319C306.437 16.5581 306.555 16.5843 306.674 16.6104C308.245 16.5835 309.906 16.5977 311.517 16.6148C312.098 16.621 311.902 16.6774 312.49 16.6834C315.915 16.7153 315.05 16.4894 318.346 16.9308C317.233 16.8872 313.174 16.924 312.583 16.9072C312.172 16.8966 310.578 16.5019 311.163 16.9006C307.874 16.8844 310.731 16.6766 307.659 16.7068C307.72 16.7572 307.781 16.8076 307.843 16.8579C306.77 16.8843 305.978 16.9077 305.327 16.814C305.108 17.0618 301.464 16.904 299.466 16.9123C296.578 16.9262 293.315 16.9836 290.454 16.9886C289.468 16.9904 288.91 16.8746 288.786 16.8744C288.605 16.8744 288.098 16.9732 287.737 16.9731C286.39 16.9745 282.291 16.7803 281.272 17.0738C289.287 17.0884 297.303 17.1031 305.319 17.1177C304.311 16.9969 312.419 17.0118 312.83 17.0186C313.211 17.0246 312.891 17.0991 313.004 17.1039C313.846 17.1376 314.565 17.0313 314.833 17.0324C315.036 17.0331 315.448 17.0843 316.174 17.0849C316.306 17.085 316.344 17.0329 316.486 17.0332C317.432 17.0361 318.366 17.0396 319.316 17.0423C319.373 17.043 319.613 17.1171 319.853 17.1177C320.093 17.1181 320.33 17.046 320.391 17.046C321.15 17.049 322.451 17.099 323.173 17.101C323.423 17.1016 323.249 17.0499 323.53 17.0512C324.392 17.0552 324.108 17.1536 325.175 17.1303C325.532 17.1226 325.509 17.0479 326.194 17.0599C326.678 17.0684 326.626 17.1992 326.703 17.2041C326.809 17.2093 328.482 17.1109 329.029 17.1953C327.833 17.4146 330.337 17.2067 330.216 17.1171C330.879 17.1417 331.542 17.1656 332.205 17.1889C332.431 17.1668 332.657 17.1449 332.883 17.1233C335.557 17.2281 337.188 17.171 339.819 17.2041C339.946 17.2061 342.162 17.2521 342.059 17.2787C340.732 17.3249 339.408 17.3302 338.559 17.2381C337.162 17.4127 337.138 17.2738 334.882 17.2966C334.126 17.3049 334.073 17.3556 333.986 17.3563C331.048 17.3828 326.342 17.4197 324.363 17.2498C323.808 17.2955 325.803 17.3132 325.027 17.3467C324.604 17.364 314.425 17.4332 317.677 17.2192C317.34 17.2247 317.002 17.2303 316.664 17.236C316.327 17.4374 314.648 17.3947 314.839 17.1885C314.68 17.2303 314.521 17.2723 314.362 17.3146C314.047 17.3504 313.676 17.37 313.154 17.382C311.158 17.4298 299.278 17.3639 298.647 17.3974C298.632 17.4551 298.618 17.5128 298.604 17.5706C303.852 17.6169 308.943 17.4766 314.665 17.6014C314.499 17.5562 314.333 17.5108 314.167 17.4651C316.45 17.5251 318.734 17.5801 321.017 17.6301C318.6 17.7157 314.755 17.8094 312.218 17.753C311.767 17.7428 312.098 17.6754 311.994 17.6679C311.724 17.6483 311.433 17.7638 310.46 17.7805C309.487 17.7976 307.043 17.7256 306.819 17.7284C306.388 17.7349 305.222 17.8805 304.487 17.8837C303.521 17.887 304.169 17.7952 303.975 17.7945C303.173 17.7898 302.454 17.8376 301.826 17.8345C300.893 17.8309 298.955 17.6763 298.303 17.9199C298.969 17.9268 299.636 17.9336 300.302 17.9401C296.689 18.0531 293.863 17.7482 290.303 18.0206C289.495 18.3414 292.436 18.2712 289.949 18.4288C290.401 18.4197 290.852 18.4107 291.304 18.4018C291.41 18.3357 291.516 18.2698 291.621 18.2041C292.399 18.244 293.177 18.283 293.955 18.3209C293.733 18.2664 293.511 18.2116 293.289 18.1565C296.047 18.0908 298.831 18.0194 299.794 18.2974C299.851 18.2273 299.908 18.1573 299.964 18.0874C302.525 18.1481 306.368 17.8393 305.65 18.21C305.772 18.1895 305.893 18.1691 306.014 18.1487C307.562 18.2087 306.901 18.0655 307.482 18.0441C307.648 18.0389 310.656 18.0883 309.323 18.2041C312.258 18.2531 311.353 17.9413 312.162 17.9215C314.04 18.0633 317.419 17.8077 315.999 18.0577C316.278 18.0642 316.558 18.0705 316.838 18.0768C317.757 17.8838 318.663 18.0859 319.659 18.1425C319.997 18.1431 320.334 18.1436 320.672 18.1441C320.898 18.0821 321.124 18.0205 321.35 17.9595C324.525 18.2065 323.52 17.4714 324.971 18.0812C324.745 18.1204 324.519 18.1601 324.293 18.2C323.757 18.2239 323.221 18.2483 322.685 18.273C324.846 18.2632 327.008 18.252 329.17 18.2394C331.914 18.3634 333.475 18.1715 336.523 18.2483C336.809 18.2301 337.094 18.2122 337.379 18.1944C337.089 18.3157 335.982 18.3173 338.044 18.3366C338.22 18.4154 336.827 18.4515 336.192 18.3973C336.039 18.3836 337.341 18.2988 335.878 18.3192C334.882 18.3332 336.689 18.4068 333.708 18.4175C333.819 18.4371 333.929 18.4567 334.039 18.4761C333.716 18.4811 333.393 18.4861 333.07 18.491C332.782 18.4459 332.495 18.4002 332.208 18.3538C331.469 18.4381 331.054 18.55 329.366 18.5571C329.824 18.5163 329.203 18.4211 328.367 18.4353C328.367 18.474 328.367 18.5127 328.367 18.5515C326.345 18.6116 327.043 18.4828 325.362 18.6026C325.194 18.5735 325.025 18.5441 324.857 18.5145C323.941 18.6604 320.569 18.8179 321.184 18.5977C320.238 18.8161 318.252 18.7629 317.513 18.6035C317.456 18.6485 317.399 18.6936 317.343 18.7387C316.949 18.7544 316.556 18.7702 316.163 18.7861C315.943 18.7628 315.724 18.7393 315.505 18.7156C315.226 18.7474 314.947 18.7796 314.668 18.812C314.5 18.7692 314.332 18.7261 314.164 18.6827C313.716 18.7449 313.268 18.808 312.82 18.8719C312.546 18.8395 312.271 18.8067 311.997 18.7736C311.969 18.8716 309.253 18.943 308.495 18.8888C308.269 18.9224 308.043 18.9561 307.817 18.9901C307.706 18.9431 307.596 18.8959 307.485 18.8486C307.317 18.8907 307.149 18.933 306.98 18.9755C306.593 18.9428 306.205 18.9096 305.818 18.876C304.236 19.1491 304.186 18.9341 303.825 18.9409C303.155 18.954 300.876 19.1538 300.495 19.1533C300.115 19.152 299.931 19.0619 299.624 19.0583C294.56 18.9944 296.642 19.2166 295.626 19.2767C295.078 19.3096 294.69 19.2253 294.205 19.2441C293.376 19.2748 289.194 19.4788 288.953 19.4719C288.603 19.4601 289.428 18.9912 288.289 19.1269C288.251 19.3733 285.816 19.1664 286.954 19.4928C285.951 19.4815 284.949 19.4694 283.946 19.4565C284.059 19.7565 282.823 19.5866 281.476 19.6289C279.567 19.6875 275.269 19.9878 275.426 19.6517C274.969 19.7367 274.512 19.8224 274.055 19.909C270.926 19.8655 267.858 20.0391 264.753 20.1085C255.537 20.312 245.539 20.4342 236.366 20.5258C235.926 20.5302 235.989 20.3865 235.671 20.3892C234.004 20.4037 229.668 20.5886 227.331 20.6006C226.583 20.6044 226.219 20.4641 225.981 20.4615C225.176 20.452 225.366 20.6433 224.995 20.6448C224.41 20.6477 221.314 20.5214 220.248 20.5199C219.72 20.5193 219.096 20.6907 218.477 20.6526C218.424 20.6495 218.522 20.4821 218.477 20.48C217.351 20.4792 218.029 20.6111 217.647 20.6103C214.93 20.6048 212.025 20.6525 209.077 20.6683C208.345 20.6722 207.225 20.5677 206.596 20.5663C206.357 20.5662 206.787 20.6927 205.958 20.696C205.674 20.6972 205.577 20.5239 205.257 20.5177C203.877 20.4911 203.415 21.0692 202.229 20.6307C199.939 20.6982 195.953 20.9172 193.864 20.958C193.37 20.9673 193.129 20.8617 192.658 20.8716C192.324 20.8785 191.736 21.0599 191.214 21.0715C190.693 21.083 189.87 20.9332 188.867 20.9562C187.811 20.9801 186.498 21.1021 186.26 21.1059C185.973 21.111 185.839 20.9015 185.552 20.9089C184.683 20.9296 182.356 21.18 181.236 21.2235C180.033 21.2695 179.31 21.1767 178.899 21.1858C178.518 21.1952 178.074 21.3882 177.9 21.3931C177.63 21.401 177.566 21.1852 177.222 21.1929C176.661 21.2061 176.082 21.3534 175.24 21.3723C160.078 21.7147 145.212 21.8648 130.461 21.9231C128.816 21.9293 127.887 22.1312 125.464 22.0883C124.481 22.0705 124.895 21.7868 124.131 21.8517C123.79 21.8809 123.876 22.0977 123.445 22.1157C121.54 22.195 119.32 22.0279 118.494 22.0448C118.166 22.0512 117.792 22.3106 117.121 22.3263C112.117 22.4442 106.197 22.475 100.812 22.6158C97.9608 22.6903 93.6441 22.9069 90.3717 22.9859C81.33 23.2042 71.6032 23.3159 63.3571 23.4956C50.9057 23.7615 38.5141 24.303 26.0894 24.1695C31.9022 24.8708 39.8176 24.6321 46.2889 24.5857C64.981 24.4292 84.8834 23.5993 104.04 23.243C110.705 23.1138 119.109 22.9356 126.406 22.9248C126.737 22.924 127.423 22.7218 128.138 22.7277C128.29 22.7299 130.174 23.0323 130.809 23.0217C130.207 22.4315 132.694 22.9181 133.463 22.8864C134.433 22.8466 136.455 22.511 138.724 22.6315C140.783 22.7391 140.215 22.9734 140.329 22.9853C141.057 23.0598 141.311 22.6949 141.869 22.6475C144.149 22.4579 155.875 22.4228 159.148 22.3639C159.993 22.3494 160.017 22.5606 160.208 22.5572C160.712 22.5475 161.431 22.3238 162.239 22.3086C163.697 22.2816 165.375 22.4419 166.177 22.4248C168.096 22.3843 171.737 22.0805 174.231 22.0256C174.932 22.0098 174.889 22.2176 175.206 22.2099C176.604 22.1749 180.244 21.858 181.978 21.8215C184.796 21.7609 187.695 21.8267 190.559 21.7029C190.741 21.785 190.922 21.867 191.104 21.9487C191.39 21.8524 191.677 21.7565 191.963 21.661C196.807 21.6266 201.737 21.338 206.554 21.2543C207.108 21.2448 209.856 21.3387 210.314 21.3291C210.695 21.3209 211.07 21.1208 211.635 21.1379C212.426 21.161 211.682 21.5407 212.974 21.4086C213.322 21.3731 212.985 21.225 213.683 21.1625C213.914 21.1413 218.39 20.9889 218.631 20.9948C219.032 21.0045 219.39 21.3182 219.493 21.3227C220.031 21.3469 220.008 21.1018 220.369 21.072C221.434 20.9834 222.826 21.118 222.999 21.1103C225.091 21.0196 229.003 20.753 231.199 20.818C231.503 20.8269 231.467 20.999 231.52 21.0035C231.864 21.0313 232.078 20.8321 232.405 20.821C234.167 20.7631 236.925 20.834 238.697 20.8269C238.901 20.8259 239.332 20.7271 239.696 20.7281C241.755 20.7347 241.087 20.8904 241.204 20.8941C241.481 20.9029 241.969 20.7359 242.707 20.7107C244.609 20.6444 248.257 20.5889 250.296 20.5564C251.823 20.5329 251.8 20.7007 251.9 20.7017C252.115 20.7028 252.71 20.556 253.715 20.5195C255.65 20.4483 255.43 20.5816 256.225 20.5582C256.292 20.5568 256.176 20.4341 257.059 20.4024C258.763 20.3422 262.593 20.3787 264.418 20.3314C265.12 20.3136 265.284 20.1969 266.003 20.1796C267.142 20.1524 269.714 20.2162 269.917 20.2109C269.974 20.2096 270.101 20.0812 270.435 20.0742C270.803 20.0665 271.165 20.123 271.439 20.1166C273 20.08 275.689 19.8125 274.941 20.26C275.442 20.1417 275.942 20.0248 276.442 19.909C279.711 19.8617 282.887 19.754 286.126 19.6683C286.854 19.6492 287.463 19.7105 288.077 19.6939C288.692 19.6766 291.404 19.5019 291.858 19.4914C292.667 19.4713 297.263 19.3684 297.835 19.365C298.951 19.3586 300.035 19.4797 300.489 19.4418C300.853 19.4117 300.517 19.3383 301.212 19.3018C302.415 19.2395 304.46 19.2992 304.828 19.2895C304.985 19.2857 304.691 19.2315 306.161 19.1982C306.953 19.1802 307.379 19.2361 307.666 19.2298C307.756 19.2277 307.622 19.1262 309.19 19.1097C310.273 19.0985 310.735 19.1668 310.848 19.1647C311.019 19.1616 311.431 19.0709 312.116 19.0605C313.717 19.0371 316.644 19.0683 318.165 19.0424C318.459 19.0376 318.359 18.9478 319.532 18.9331C320.371 18.9225 320.224 18.9967 320.538 18.993C321.036 18.9868 321.778 18.8855 322.878 18.8668C324.262 18.8457 334.537 18.7167 335.069 18.7215C335.427 18.7268 335.842 18.7187 336.019 18.7461C335.867 18.7795 335.715 18.813 335.563 18.8468C333.989 18.7762 334.624 18.8838 334.207 18.9018C333.602 18.9276 331.322 18.9653 330.77 19.0072C330.574 19.0225 331.023 19.08 329.968 19.1428C328.835 19.2112 328.331 19.0963 327.88 19.2828C326.272 19.1285 324.727 19.3793 326.589 19.3854C327.629 19.3907 337.824 19.1641 339.906 19.11C341.595 19.0672 344.756 18.9346 346.832 18.8857C348.052 18.8566 351.057 18.7765 350.93 18.8438C352.013 18.8192 350.867 18.7901 351.094 18.7743C351.569 18.7427 354.949 18.687 355.589 18.6658C358.745 18.5625 362.726 18.3964 365.792 18.3661C365.649 18.3825 365.506 18.399 365.364 18.4157C364.675 18.4601 361.479 18.5228 361.118 18.6002C365.792 18.4516 370.465 18.303 375.138 18.1544C375.051 18.1187 380.848 17.945 381.122 17.9487C381.02 17.9659 380.918 17.9832 380.816 18.0007C377.541 18.0502 377.835 18.1194 375.635 18.1466C374.74 18.1746 375.01 18.1957 374.569 18.2161C370.178 18.4233 374.499 18.1537 371.137 18.2913C372.149 18.3066 369.396 18.4174 368.162 18.4675C367.881 18.479 364.194 18.5911 363.756 18.6066C361.296 18.6945 357.071 18.8814 354.627 18.9251C352.702 18.9856 351.642 19.0784 349.894 19.1548C348.567 19.2125 348.948 19.1567 348.323 19.178C347.013 19.2214 346.582 19.3739 345.743 19.213C344.854 19.267 343.966 19.322 343.078 19.3782C343.078 19.3472 343.078 19.3162 343.078 19.2852C342.52 19.304 341.962 19.3228 341.404 19.3416C341.24 19.3789 341.075 19.4164 340.911 19.4543C339.14 19.4724 339.88 19.3671 339.549 19.2853C339.166 19.2911 338.784 19.2968 338.401 19.3023C338.105 19.3843 337.809 19.4674 337.513 19.5514C335.805 19.605 334.097 19.6582 332.389 19.7108C332.278 19.6782 332.168 19.6453 332.057 19.6123C332.054 19.6491 332.05 19.6859 332.047 19.7227C329.154 19.8303 326.262 19.9389 323.369 20.0485C322.6 20.1429 327.234 20.0247 327.585 20.0149C329.537 19.9629 334.722 19.7171 334.728 19.8421C335.942 19.7021 339.595 19.5958 340.732 19.6536C339.007 19.7137 337.282 19.7732 335.557 19.8323C335.612 19.8718 335.668 19.9112 335.724 19.9504C333.575 19.868 333.26 19.8803 331.051 20.1372C331.049 20.0777 331.047 20.0182 331.045 19.9587C329.504 20.2285 326.781 19.9676 326.703 20.2396C325.883 20.2496 325.062 20.2589 324.242 20.2675C322.471 20.3699 325.221 20.4799 318.286 20.6725C317.808 20.6855 317.908 20.6042 317.189 20.6378C316.982 20.6471 315.795 20.8087 313.525 20.8894C313.171 20.9018 313.144 20.8322 312.777 20.8377C311.928 20.8493 310.237 21.0599 311.005 20.7958C307.642 20.8554 309.036 20.9974 307.993 21.1178C307.298 21.1986 307.438 21.0493 306.836 21.1059C306.092 21.1762 306.638 21.3013 303.657 21.3563C303.992 21.3323 304.326 21.3084 304.661 21.2845C304.492 21.2509 304.324 21.2171 304.156 21.1831C302.455 21.3495 302.615 21.1976 301.813 21.4641C300.576 21.4109 299.506 21.4442 297.815 21.5327C294.529 21.703 296.214 21.9104 292.464 21.6949C291.856 21.7714 291.249 21.8488 290.641 21.927C289.642 21.8564 290.45 21.6836 288.96 21.7135C290.126 21.9461 286.981 21.9701 286.45 22.2478C286.394 22.1895 286.338 22.1311 286.282 22.0726C285.949 22.0863 285.616 22.1 285.284 22.1137C285.283 22.163 285.281 22.2122 285.28 22.2614C284.837 22.2434 284.394 22.225 283.95 22.2062C283.617 22.2693 283.283 22.3329 282.95 22.3969C282.402 22.3155 281.854 22.2326 281.305 22.1483C280.961 22.1549 280.617 22.1614 280.273 22.1678C280.382 22.2398 280.491 22.3116 280.6 22.3832C280.157 22.3763 279.715 22.3691 279.272 22.3616C279.787 22.4665 279.464 22.6273 278.087 22.6837C276.95 22.7298 278.23 22.4073 275.787 22.622C275.616 22.6372 275.315 22.843 273.005 22.9756C270.236 23.1345 271.581 22.9303 271.087 22.9468C270.99 22.95 270.144 23.088 269.352 23.1377C268.903 23.166 268.47 23.1019 268.41 23.1046C268.133 23.1204 268.052 23.2419 267.668 23.2633C266.692 23.317 265.382 23.3163 264.426 23.3642C263.991 23.3859 263.583 23.4762 263.389 23.4857C263.088 23.5001 262.706 23.4061 262.402 23.4198C261.279 23.4694 259.575 23.9237 259.053 23.4219C257.973 23.9539 255.712 23.4638 255.877 23.7856C252.992 23.7822 245.297 24.5556 245.523 23.9506C243.889 24.5316 244.035 24.1565 243.35 24.193C242.585 24.2348 242.981 24.318 242.373 24.3402C240.953 24.3924 239.595 24.408 238.181 24.4677C238.403 24.3726 238.625 24.2778 238.847 24.1834C237.363 24.2185 237.874 24.3957 236.36 24.5002C233.576 24.6925 234.749 24.4797 234.338 24.2681C234.449 24.4841 231.165 24.5906 230.831 24.5748C230.632 24.565 231.505 24.2378 229.495 24.4146C229.605 24.5003 229.715 24.5859 229.825 24.6712C228.909 24.5866 226.42 24.8501 225.998 24.8379C225.804 24.8335 224.767 24.1273 223.818 24.7597C223.704 24.6713 223.589 24.5827 223.474 24.4939C222.42 24.6487 221.366 24.8054 220.312 24.9641C220.144 24.8 219.976 24.6353 219.808 24.4703C219.473 24.4834 219.139 24.4966 218.804 24.5097C219.026 24.6543 219.248 24.7983 219.47 24.9417C217.405 24.9574 214.882 25.3108 214.456 24.7988C214.014 24.9146 213.572 25.031 213.129 25.1482C212.841 24.9829 212.553 24.8167 212.265 24.6498C210.217 24.7742 210.183 24.8952 208.783 25.1449C208.837 25.0011 208.892 24.8575 208.947 24.7139C207.914 24.9517 206.028 25.2147 204.538 25.3011C203.829 25.342 202.612 25.1899 202.445 25.2145C202.276 25.2386 200.614 26.1052 200.434 25.421C197.987 25.8283 196.91 25.5575 195.917 25.6041C195.272 25.6352 194.978 25.8177 194.249 25.8655C193.206 25.9343 192.157 25.8941 191.555 25.9305C191.211 25.9519 191.146 26.1241 190.909 26.1394C189.787 26.2123 190.444 26.011 189.261 26.0711C189.152 26.0774 188.287 26.3226 187.313 26.3369C186.768 26.3453 185.358 26.1655 185.234 26.1708C184.682 26.1968 185.123 26.6601 183.238 26.1818C183.293 26.2713 183.347 26.3607 183.402 26.4501C181.069 26.7819 180.701 26.3856 180.229 26.3755C180.169 26.3755 179.601 26.5594 179.261 26.5515C178.687 26.5376 178.456 26.3259 178.328 26.3212C177.881 26.305 176.372 26.4647 175.386 26.2875C175.593 26.9139 172.138 27.2959 171.372 26.5916C170.761 26.7613 170.149 26.9321 169.537 27.104C169.261 26.9937 168.984 26.8829 168.707 26.7717C168.539 26.9005 168.371 27.0296 168.203 27.159C167.311 26.9273 166.42 26.6925 165.528 26.4547C165.472 26.7297 165.415 27.0048 165.358 27.2802C165.109 27.2597 164.859 27.2391 164.609 27.2184C164.415 27.0089 164.22 26.7989 164.025 26.5883C163.713 26.6421 163.401 26.6961 163.089 26.7502C163.012 26.9118 162.935 27.0735 162.857 27.2353C161.18 27.4913 162.042 25.9258 158.847 27.4019C158.35 27.2954 157.853 27.1881 157.356 27.08C156.794 27.7258 155.742 27.3924 154.893 27.4972C154.295 27.5718 154.328 27.8209 153.512 27.8612C152.697 27.9015 152.726 27.6591 152.663 27.6601C151.998 27.6727 151.496 27.9072 151.009 27.8853C150.935 27.8821 150.751 27.6015 150.13 27.6084C149.508 27.6153 149.133 27.9395 148.207 27.9202C147.733 27.9104 147.596 27.67 147.175 27.6652C145.169 27.6351 143.15 28.9935 141.645 27.5442C141.306 27.7474 138.847 28.5246 137.794 28.532C136.157 28.539 136.788 28.2096 136.137 28.1809C136.044 28.1763 135.545 28.2993 134.172 28.3375C133.926 28.3442 133.983 28.5144 133.948 28.5182C132.347 28.5822 129.238 28.5739 127.48 28.6207C127.323 28.6237 126.5 29.1545 125.106 28.5445C123.041 29.1281 119.15 28.2066 116.426 29.0796C116.048 29.1115 115.59 28.9467 115.422 28.9597C113.982 29.0737 114.51 29.6191 111.254 28.9242C111.518 29.2022 110.756 29.4944 109.68 29.5176C108.062 29.5519 109.211 28.9612 107.911 29.0578C107.911 29.2116 107.911 29.3654 107.911 29.5192C104.92 29.2272 104.324 29.9131 101.323 30.046C100.243 30.0934 98.6484 29.8092 98.391 29.8184C98.2914 29.8232 97.1107 30.2563 96.998 30.2643C96.3629 30.303 96.0043 30.1404 95.4561 30.1623C93.6444 30.2333 91.4826 30.8342 91.8737 29.8939C91.3756 30.109 90.8774 30.3252 90.3793 30.5422C88.4974 29.6267 87.0901 31.0596 86.6957 30.1041C86.3592 30.3188 86.0227 30.5342 85.6862 30.7503C77.6146 30.9914 69.5431 31.2247 61.4716 31.4503C61.1507 31.8018 57.6309 31.8311 57.4504 31.785C56.6216 31.578 57.497 30.7947 55.8057 31.0328C55.6185 31.3689 55.4314 31.7055 55.2442 32.0426C53.1184 32.2405 54.1409 31.8686 53.3019 31.6792C52.9513 31.7344 53.0645 31.9868 52.59 32.0255C50.0161 32.2365 44.7386 32.4736 41.9241 32.6147C41.3565 32.6434 41.4422 32.3915 41.2659 32.3982C40.7813 32.4205 39.825 32.7748 38.8526 32.8168C32.8393 33.0719 24.3184 33.2558 18.2649 33.2265C17.8537 33.2243 17.8028 32.9108 17.5254 32.9063C17.1409 32.9012 16.282 33.1921 15.8776 33.1821C15.4967 33.1734 15.2527 32.9422 14.8451 32.9304C12.9799 32.8721 10.4721 33.3883 8.47656 32.7444C8.30874 32.6917 6.21794 31.4647 6.17063 31.3789C5.89319 30.8769 7.75117 30.0213 4.69931 29.3683C7.42693 28.6324 6.57485 27.5191 3.03162 27.0377C4.80876 26.8482 6.58589 26.6606 8.36303 26.4751C8.36559 26.3395 8.36814 26.2039 8.3707 26.0683C6.75295 25.4323 5.14791 25.2376 2.68795 25.2236C2.76466 25.0948 2.84138 24.966 2.91809 24.8374C5.09081 24.1615 7.71181 23.9997 9.36641 23.121C6.93979 22.5254 4.51316 21.918 2.08654 21.299C2.20774 21.1972 2.32895 21.0955 2.45015 20.994C3.6134 20.7221 6.15428 20.5487 7.12031 20.3011C10.8098 19.3614 3.89117 19.6347 5.02764 19.0651C8.92302 19.068 12.8184 19.0702 16.7138 19.0719C16.8504 18.6811 1.86467 17.5874 2.01903 16.3108C3.24334 16.2293 4.46765 16.1485 5.69195 16.0686C5.14628 15.7499 4.60061 15.4299 4.05494 15.1087C4.2053 15.0087 4.35565 14.9089 4.506 14.8091C6.57157 14.5751 8.63715 14.3449 10.7027 14.1186C4.42266 14.3122 1.50426 14.1231 0 11.5687C0.170298 11.5066 0.340597 11.4447 0.510895 11.3828C1.87136 12.9856 8.29323 12.5404 11.7061 12.2814C11.0105 11.8215 8.00544 12.1302 7.37039 11.8483C7.19044 11.7672 7.81799 11.4603 7.40108 11.2923C6.31141 10.8572 1.66796 10.2305 2.34275 9.71908C2.7773 9.38894 10.2487 9.08722 11.7061 9.1541C8.28997 8.49282 4.77014 8.24199 1.34398 7.42489C3.5066 6.45336 5.42191 5.26918 9.36948 5.33699C10.5727 4.85272 2.21598 3.8456 2.0221 3.5415C3.46836 3.27712 4.91462 3.01616 6.36087 2.7586C5.13759 2.79657 3.91431 2.83531 2.69102 2.87482C2.68744 2.76993 2.68386 2.66504 2.68028 2.56014C5.84913 2.18895 8.74822 1.4246 12.375 1.63142C12.258 1.08628 10.088 1.04948 9.03502 1.00107ZM356.091 19.0214C356.164 19.0715 354.834 19.1142 354.086 19.1418C354.198 19.1475 354.311 19.1532 354.423 19.1588C352.825 19.2113 349.851 19.3017 349.741 19.4241C348.601 19.4852 349.105 19.3615 348.737 19.3641C348.594 19.3643 347.106 19.4854 345.916 19.4546C345.633 19.4658 345.35 19.4769 345.067 19.4881C345.013 19.532 344.958 19.5761 344.903 19.6202C344.509 19.5853 344.115 19.5494 343.72 19.5124C347.842 19.3469 351.963 19.1833 356.085 19.0217C356.087 19.0216 356.089 19.0215 356.091 19.0214ZM315.009 20.643C313.508 20.665 311.209 20.692 311.674 20.8562C312.622 20.8093 313.57 20.7628 314.518 20.7165C314.682 20.6919 314.845 20.6674 315.009 20.643ZM165.703 26.0047C164.45 25.5828 163.296 26.0289 161.357 26.0149C161.359 26.1152 161.362 26.2155 161.365 26.3159C162.157 26.0454 164.253 26.1282 165.703 26.0047ZM393.332 17.5593C393.609 17.5524 393.885 17.5454 394.161 17.5383C393.038 17.5916 392.837 17.5853 391.567 17.6264C391.49 17.629 391.517 17.6336 391.49 17.6345C391.179 17.6448 390.892 17.647 390.611 17.6558C390.069 17.6728 389.628 17.6945 388.668 17.7249C387.927 17.7484 387.92 17.7344 387.659 17.7428C387.437 17.7483 385.235 17.8634 383.819 17.8901C381.125 17.929 392.51 17.5805 393.332 17.5593ZM401.318 17.322C401.052 17.3305 400.785 17.3389 400.519 17.3474C401.32 17.3202 399.703 17.3702 398.517 17.4065C398.553 17.3999 401.063 17.3278 402.186 17.2944C401.897 17.3029 401.608 17.3121 401.318 17.322ZM367.624 18.2852C368.666 18.2505 368.492 18.3161 368.449 18.3358C368.117 18.346 367.785 18.3563 367.453 18.3665C367.51 18.3393 367.567 18.3121 367.624 18.2852ZM375.465 18.0436C375.141 18.0849 372.877 18.1676 371.804 18.203C371.758 18.2044 372.052 18.1753 371.293 18.1994C371.066 18.2053 368.824 18.3534 369.317 18.247C371.366 18.1773 373.414 18.1095 375.462 18.0437C375.463 18.0436 375.464 18.0436 375.465 18.0436ZM377.751 17.9973C377.324 18.019 376.898 18.0412 376.471 18.0638C376.251 18.0556 376.031 18.047 375.81 18.0379C376.295 18.0204 376.781 18.0031 377.266 17.986C377.428 17.9899 377.589 17.9937 377.751 17.9973ZM56.8551 26.6615C56.9543 26.872 57.0535 27.0823 57.1527 27.2924C57.5372 27.4105 59.406 26.4345 58.8143 26.2725C58.1612 26.4015 57.5082 26.5312 56.8551 26.6615ZM48.9631 26.4182C48.5744 26.3182 48.1857 26.2179 47.7971 26.1173C47.3501 26.4995 46.9031 26.8831 46.4562 27.2681C48.3978 27.4651 50.4638 27.6898 50.1306 26.6131C50.575 26.6013 51.0195 26.5895 51.4639 26.5778C51.0896 27.0355 51.1399 27.183 52.3031 27.4329C52.5575 26.8041 53.7601 27.0872 55.1368 26.9128C54.1354 26.9046 53.1341 26.896 52.1328 26.8871C52.1328 26.7775 52.1328 26.6678 52.1328 26.5582C54.3647 26.5395 51.5907 25.9158 50.1368 26.3898C50.0222 26.246 49.9076 26.102 49.7931 25.9578C49.5164 26.1109 49.2397 26.2644 48.9631 26.4182ZM210.291 22.3727C210.014 22.3196 209.738 22.2662 209.461 22.2125C208.389 23.0316 210.572 22.2265 212.126 22.8018C211.612 22.3464 213.982 22.303 214.117 22.2683C213.845 22.1194 213.572 21.9697 213.299 21.8194C212.297 22.0013 211.294 22.1858 210.291 22.3727ZM202.448 22.015C203.407 22.3984 198.695 22.5461 197.113 22.494C196.729 22.4812 196.044 22.2668 195.766 22.3026C195.598 22.3924 195.43 22.4824 195.262 22.5726C195.062 22.2804 191.975 22.6913 190.759 22.8884C190.644 22.781 190.53 22.6733 190.415 22.5655C189.972 22.6205 189.528 22.6758 189.085 22.7313C189.141 22.6189 189.196 22.5066 189.252 22.3943C188.917 22.5358 188.581 22.6778 188.246 22.8205C186.929 23.0042 187.741 22.3736 186.751 22.5884C185.652 22.8284 187.454 23.1467 187.42 23.3827C188.313 23.2961 190.342 23.1048 191.248 23.0737C191.768 23.0565 191.179 23.4854 193.421 22.9492C193.912 23.0461 194.404 23.1423 194.895 23.2376C195.797 23.0378 196.699 22.8401 197.601 22.6448C197.77 22.7898 197.938 22.9344 198.106 23.0787C198.202 23.0985 200.289 22.7042 200.177 22.5973C201.022 22.8572 202.757 22.8576 204.585 22.8206C204.761 22.7372 204.937 22.654 205.113 22.5711C203.345 22.7881 204.55 22.5032 204.024 22.3664C203.719 22.2875 202.789 22.1394 202.448 22.015ZM69.1703 25.7944C66.2021 26.4657 68.0398 25.9281 64.8315 26.0102C65.0555 26.3226 65.2795 26.6344 65.5035 26.9456C67.0809 26.3212 69.6765 26.6348 69.1734 25.7943C69.1723 25.7943 69.1713 25.7943 69.1703 25.7944ZM37.7756 27.7384C39.4733 27.4823 38.6214 26.9727 40.7734 26.7462C40.7745 26.7462 40.7755 26.7462 40.7765 26.7462C39.6637 26.7371 38.5508 26.7277 37.438 26.7179C37.5505 27.0584 37.663 27.3986 37.7756 27.7384ZM137.026 24.5912C138.654 24.6543 138.333 24.4708 139.81 24.8141C142.01 24.2863 140.148 24.4053 140.148 23.9813C139.645 24.1182 139.142 24.2558 138.64 24.3941C137.421 24.0281 138.577 23.797 138.577 23.7593C138.576 23.7593 138.575 23.7593 138.574 23.7593C138.574 23.6316 138.613 23.6039 138.146 23.5376C137.772 23.8873 137.399 24.2385 137.026 24.5912ZM143.993 23.8846C143.434 24.1754 143.183 24.5404 144.651 24.6754C144.652 24.6753 144.653 24.6753 144.654 24.6753C144.772 24.0551 146.179 24.5141 146.82 24.4542C146.988 24.3829 147.157 24.3119 147.325 24.2409C146.214 24.1241 145.103 24.0053 143.993 23.8846ZM168.54 22.7436C168.546 23.3606 167.315 23.4553 169.048 23.9762C169.384 23.9555 169.721 23.9348 170.058 23.9142C170.278 23.7731 170.499 23.6323 170.72 23.492C174.989 24.4738 176.261 22.5738 169.048 23.4629C169.047 23.4633 169.046 23.4638 169.045 23.4642C168.877 23.2245 168.708 22.9844 168.54 22.7436ZM161.022 22.973C160.968 23.3093 160.914 23.6459 160.86 23.9827C159.917 23.1975 158.699 24.0061 156.851 23.476C156.684 23.5838 156.516 23.6919 156.349 23.8002C155.658 23.5909 148.873 23.6944 150.343 24.1958C150.985 24.4127 152.383 24.0558 152.503 24.0602C152.911 24.0756 153.442 24.358 154.131 24.321C154.529 24.2991 155.367 23.9289 156.179 23.9082C157.994 23.8665 161.307 24.676 163.694 23.7557C163.865 23.8509 164.037 23.9459 164.209 24.0407C165.98 23.9293 165.389 23.634 167.037 23.9606C168.175 22.3763 160.413 24.2173 162.029 22.8955C162.028 22.8955 162.027 22.8955 162.026 22.8956C161.691 22.9213 161.357 22.9471 161.022 22.973ZM112.26 24.6945C112.153 24.3532 110.099 24.9369 110.582 24.097C109.911 24.4009 109.241 24.7069 108.571 25.0149C108.576 25.0923 108.581 25.1697 108.586 25.2471C109.252 25.1681 109.919 25.0895 110.585 25.0113C110.588 25.1334 110.59 25.2554 110.593 25.3775C111.586 24.9083 115.73 24.992 115.603 25.4186C115.825 25.2328 116.046 25.0474 116.268 24.8625C118.25 25.2951 119.955 24.7353 122.115 25.1438C122.282 24.9937 122.449 24.8439 122.616 24.6944C122.725 24.8086 122.834 24.9227 122.943 25.0367C123.73 25.0296 124.516 25.0224 125.303 25.0151C127.866 24.4813 122.886 24.0048 122.282 24.0855C122.202 24.0972 122.214 24.4003 121.713 24.4609C120.822 24.569 115.838 24.3878 114.296 24.6316C114.283 24.4248 114.27 24.218 114.256 24.0112C113.591 24.2375 112.926 24.4653 112.26 24.6945ZM178.065 23.1557C178.177 23.3169 178.29 23.4777 178.402 23.6384C180.344 23.4203 181.566 23.529 181.069 23.0071C181.068 23.0071 181.067 23.0072 181.066 23.0072C180.065 23.0564 179.065 23.1059 178.065 23.1557ZM322.363 19.4317C322.312 19.3175 321.383 19.2956 320.184 19.4116C320.242 19.4448 320.3 19.4779 320.357 19.5109C320.982 19.3933 321.762 19.5476 323.691 19.4703C323.691 19.4128 323.691 19.3554 323.691 19.2979C323.248 19.342 322.805 19.3866 322.363 19.4317ZM176.389 23.128C175.797 22.9471 174.136 23.586 175.229 23.5857C176.065 23.5842 176.707 23.2242 176.389 23.128ZM31.0971 27.4048C31.5359 27.4496 31.9747 27.4942 32.4135 27.5386C32.6421 27.302 32.8706 27.0658 33.0993 26.83C33.0982 26.83 33.0972 26.83 33.0962 26.8301C32.4298 27.0207 31.7635 27.2123 31.0971 27.4048ZM131.461 24.7768C132.949 24.711 134.438 24.6457 135.926 24.5807C135.941 24.4722 135.955 24.3636 135.97 24.2552C134.479 24.6899 133.88 24.2796 133.532 24.2617C133.534 24.2616 133.535 24.2616 133.537 24.2615C132.421 24.204 131.357 24.1674 130.301 24.0617C130.688 24.3012 131.075 24.5395 131.461 24.7768ZM126.36 24.2111C126.611 24.997 126.938 25.0754 129.224 24.4629C129.134 24.3688 129.043 24.2746 128.953 24.1804C127.768 24.2678 127.077 24.468 127.285 24.0512C126.977 24.1044 126.668 24.1576 126.36 24.2111ZM149.665 23.8585C149.39 23.6347 147.213 23.9225 147.331 24.0375C147.378 24.0836 150.199 24.2963 149.665 23.8585ZM338.894 18.949C338.392 18.9488 337.89 18.9484 337.389 18.9476C338.056 18.9104 338.723 18.8738 339.391 18.8379C339.225 18.8746 339.059 18.9117 338.894 18.949ZM344.402 18.5692C344.759 18.5814 343.596 18.7605 345.735 18.7436C344.179 18.7866 342.622 18.8299 341.066 18.8735C341.796 18.8291 342.526 18.7857 343.256 18.7432C343.128 18.7026 343.001 18.6618 342.874 18.6207C343.383 18.6034 343.892 18.5862 344.402 18.5692ZM346.072 18.6384C345.234 18.5462 349.647 18.442 350.058 18.4455C350.15 18.4466 350.585 18.5138 350.746 18.5262C350.079 18.5422 349.413 18.5583 348.747 18.5743C348.969 18.594 349.193 18.6134 349.415 18.6324C348.636 18.6606 347.856 18.6892 347.076 18.7182C347.409 18.6837 347.743 18.6497 348.076 18.6161C347.408 18.6238 346.74 18.6313 346.072 18.6384ZM328.367 19.0975C328.925 19.0875 329.483 19.0774 330.041 19.0673C329.93 19.0172 329.818 18.9669 329.707 18.9163C329.373 18.9238 329.039 18.9312 328.705 18.9387C328.592 18.9914 328.48 19.0443 328.367 19.0975ZM339.736 18.7608C338.924 19.0042 336.71 18.5631 339.297 18.6876C339.558 18.7001 339.813 18.7378 339.736 18.7608ZM351.712 18.4302C353.447 18.2641 353.056 18.5528 351.418 18.5101C351.335 18.5075 351.582 18.4426 351.712 18.4302ZM364.719 18.1345C364.86 18.1325 365.105 18.1936 366.447 18.0996C366.668 18.1021 366.89 18.1045 367.111 18.1067C366.593 18.1476 362.16 18.2762 362.772 18.1891C363.451 18.1725 364.017 18.148 364.719 18.1345ZM360.427 17.9469C359.761 17.9594 359.096 17.972 358.431 17.9848C358.65 18.0065 358.869 18.0278 359.089 18.0488C358.761 18.0613 358.434 18.0739 358.107 18.0867C357.547 18.053 356.988 18.0176 356.428 17.9806C357.875 17.9517 359.321 17.9234 360.767 17.8959C360.654 17.9127 360.54 17.9298 360.427 17.9469ZM342.737 18.1388C344.017 18.163 345.586 18.0953 347.665 18.073C347.666 18.0731 347.667 18.0732 347.668 18.0733C347.772 18.0723 347.956 18.1126 348.289 18.1092C348.574 18.105 354.189 17.9793 353.751 18.0507C351.579 18.1448 350.767 18.0645 350.245 18.2277C350.14 18.197 350.034 18.166 349.928 18.1349C347.839 18.1101 347.243 18.2361 346.069 18.3027C346.074 18.2761 346.079 18.2494 346.083 18.2228C345.3 18.2331 344.516 18.2433 343.733 18.2534C343.843 18.2698 343.954 18.2861 344.064 18.3023C343.787 18.3071 343.51 18.3119 343.233 18.3167C342.557 18.2459 341.701 18.2377 342.737 18.1388ZM363.444 17.93C364.059 17.7819 370.053 17.7885 372.791 17.7213C371.354 17.8071 369.127 17.7985 367.559 17.8197C364.529 17.8643 366.623 17.8802 366.109 17.9089C365.855 17.9248 364.136 17.8661 363.444 17.93ZM338.061 18.2456C339.572 18.241 340.417 18.1784 341.724 18.2385C341.615 18.256 341.505 18.2737 341.396 18.2914C340.948 18.285 337.299 18.2944 338.061 18.2456ZM376.803 17.6869C373.885 17.6968 375.324 17.7642 373.806 17.7197C374.805 17.7003 375.804 17.6814 376.803 17.663C376.803 17.671 376.803 17.6789 376.803 17.6869ZM173.049 20.1186C171.819 20.1154 170.446 19.979 169.711 20.3032C170.546 20.3411 171.382 20.3784 172.218 20.4153C172.495 20.316 172.772 20.2171 173.049 20.1186ZM208.118 17.1174C207.838 17.0539 206.727 17.2397 206.61 17.24C206.393 17.2399 206.452 17.1475 206.449 17.1234C205.026 17.1391 206.339 17.427 205.286 17.4903C205.106 17.5012 202.633 17.3594 201.627 17.3712C200.079 17.3902 198.534 17.3717 197.956 17.377C196.98 17.3853 195.168 17.6133 193.563 17.6284C192.902 17.6341 192.671 17.4502 192.006 17.4552C187.737 17.4861 179.334 17.7663 175.547 17.6486C174.611 17.619 173.719 17.3569 173.224 17.3783C172.834 17.4748 172.444 17.5717 172.054 17.6692C170.854 16.7975 170.452 17.5727 169.158 17.6586C168.337 17.7122 167.952 17.4501 167.842 17.4507C167.11 17.4563 166.749 17.5822 166.174 17.6039C165.529 17.628 164.602 17.5091 164.372 17.531C164.23 17.5459 164.682 17.899 162.179 17.899C159.628 17.8984 157.11 17.8662 154.516 17.8547C155.381 18.9661 156.126 18.1988 157.185 18.1565C157.47 18.1447 157.289 18.3204 157.537 18.3116C158.235 18.2876 159.573 18.1119 160.151 18.1513C160.775 18.1937 160.562 18.5944 161.354 18.4431C161.394 18.4354 161.267 18.2711 161.454 18.2427C163.325 17.9639 163.938 18.2478 166.305 18.2455C167.873 18.2433 177.396 18.0531 177.722 18.1529C179.427 18.6787 169.393 18.7466 168.22 18.7095C167.809 18.6963 168.239 18.517 167.865 18.485C167.706 18.4718 166.28 18.8183 164.87 18.8568C163.166 18.9034 159.74 18.6885 158.115 18.7052C144.15 18.8643 130.378 18.7159 116.426 18.7776C116.128 18.7791 115.737 19.0282 114.767 19.0343C96.6768 19.1454 77.9271 19.0302 59.606 19.269C55.6116 19.3207 51.6502 19.6313 47.6191 19.4292C47.119 19.6556 46.6188 19.883 46.1186 20.1113C47.398 19.9239 49.7422 20.4093 49.9557 20.4138C50.0326 20.4153 50.5176 20.161 51.2997 20.168C52.3994 20.1769 52.8818 20.388 52.972 20.3871C53.2517 20.3853 53.0684 20.1582 53.3356 20.1571C55.3278 20.1505 56.8693 20.0735 58.6977 20.0568C60.7632 20.0391 61.8101 20.4441 63.3142 19.9771C63.4845 20.1528 63.6548 20.3283 63.8251 20.5036C64.9489 19.7268 71.6406 19.7666 74.3513 19.784C75.2066 19.7901 75.0566 20.0914 75.344 20.089C75.5275 20.087 75.4551 19.6949 77.6929 19.7551C78.8193 19.7856 79.1148 20.066 79.6797 20.0519C79.9866 20.0439 79.9368 19.7645 80.3778 19.7611C82.9281 19.7417 85.0105 19.8155 87.5073 19.8457C88.2092 19.854 88.217 20.0814 88.3741 20.077C88.9525 20.0613 89.9585 19.6691 91.4287 19.6594C93.8488 19.6427 98.672 19.6088 100.651 19.7721C100.942 19.7964 101.183 20.0561 101.397 20.0503C101.72 20.0405 101.847 19.767 101.904 19.7651C102.987 19.7515 102.336 20.0096 103.061 19.9419C103.452 19.9052 103.86 19.5929 104.769 19.5514C105.969 19.4966 105.733 19.8624 106.234 19.8216C106.287 19.8155 106.303 19.5626 106.795 19.5506C108.664 19.5063 111.374 19.4287 113.143 19.4168C113.651 19.4132 114.028 19.5761 114.737 19.5731C116.164 19.5664 124.277 19.4008 124.942 19.4877C125.012 19.4965 124.291 19.8525 125.441 19.8315C125.775 19.6833 126.109 19.5356 126.443 19.3884C127.001 19.6157 127.56 19.8415 128.118 20.066C128.098 19.2691 131.383 19.1276 131.351 19.9297C131.71 19.9588 132.07 19.9877 132.429 20.0165C133.178 19.4569 133.676 19.6561 135.123 19.3225C135.349 19.4886 135.574 19.6542 135.8 19.8195C135.857 19.7074 135.913 19.5953 135.97 19.4833C136.742 20.0801 138.009 19.4631 138.163 19.4595C138.754 19.4415 139.198 19.5896 139.476 19.5823C140.512 19.5569 142.755 19.3318 143.965 19.4176C144.022 19.422 143.966 19.6731 144.31 19.7008C144.931 19.7504 144.992 19.3854 145.82 19.8057C145.987 19.6967 146.154 19.5879 146.322 19.4793C146.499 19.5332 146.677 19.5871 146.854 19.6408C147.901 19.6028 148.949 19.5651 149.996 19.5278C149.043 19.9518 150.14 20.1715 151.176 19.8355C151.527 19.722 151.215 19.4742 151.332 19.4351C151.493 19.3827 156.193 19.4697 156.504 19.6246C156.727 19.545 156.949 19.4657 157.172 19.3867C157.284 19.5401 157.397 19.6933 157.509 19.8463C157.632 19.7911 157.755 19.736 157.877 19.6809C159.101 19.9378 162.276 19.2913 162.851 19.3368C163.159 19.3598 162.882 20.0051 164.356 19.923C164.407 19.747 164.459 19.5712 164.51 19.3954C164.847 19.3673 165.185 19.3393 165.522 19.3115C166.156 19.322 167.078 19.6146 167.107 19.8194C167.305 19.694 167.503 19.5689 167.701 19.4441C168.232 19.8402 171.067 19.6661 172.207 19.4078C172.54 19.5232 172.874 19.6382 173.207 19.7526C173.655 19.6043 174.103 19.4569 174.551 19.3104C175.589 19.2583 174.493 19.5048 174.714 19.5227C175.182 19.5578 177.567 19.1396 177.409 19.6338C177.735 19.6317 178.06 19.6295 178.385 19.6273C178.552 19.4854 178.72 19.3438 178.887 19.2024C179.445 19.6794 180.411 19.4998 182.393 19.6528C182.559 19.5417 182.725 19.4309 182.891 19.3204C183.504 19.4697 184.117 19.6176 184.729 19.7643C184.855 19.5839 184.981 19.4038 185.107 19.224C185.373 19.1959 185.64 19.168 185.906 19.1401C186.447 19.5335 187.419 19.0948 187.914 19.2541C188.636 19.485 188.078 19.7725 186.738 19.8439C186.838 20.1324 190.831 19.9481 191.751 19.9168C191.69 19.8624 191.63 19.8079 191.569 19.7534C190.627 19.8081 189.686 19.8634 188.744 19.9193C187.955 19.2063 190.512 19.3744 191.685 19.2713C191.793 19.2613 192.401 18.9871 193.583 19.0028C194.041 19.0098 195.827 19.381 196.168 19.3981C198.922 19.5441 196.897 19.0206 199.591 19.4694C199.03 19.1115 200.577 19.398 202.189 19.3114C202.463 19.296 204.789 18.9856 204.946 18.9776C205.925 18.9233 204.859 19.2449 206.276 19.1504C206.446 19.067 206.616 18.9839 206.787 18.9011C207.117 18.8983 207.446 18.8956 207.776 18.8929C209.778 19.5955 210.244 19.0587 210.955 18.9869C211.243 18.9572 210.873 19.146 211.618 19.0997C211.899 19.0825 212.21 18.9262 212.965 18.9092C215.328 18.8589 216.13 19.4881 218.303 18.8054C218.636 18.8984 218.969 18.9909 219.303 19.0829C219.528 18.9665 219.753 18.8505 219.978 18.7349C221.699 19.05 221.078 18.7179 221.699 18.7173C223.341 18.7148 226.7 18.7516 226.994 19.0096C228.411 18.3975 230.105 19.0575 230.664 19.0261C230.996 18.9513 231.328 18.8768 231.659 18.8027C232.05 18.8707 232.44 18.9382 232.83 19.0052C232.64 18.4363 234.661 18.9791 234.855 18.9838C235.079 18.9893 238.187 18.7939 239.344 18.7873C240.5 18.7803 242.513 18.9075 242.691 18.9056C242.894 18.9031 244.861 18.7389 246.399 18.7268C247.744 18.7189 255.715 18.8341 255.213 18.6177C254.691 18.5613 253.949 18.5141 253.307 18.4901C251.315 18.4197 239.622 18.3809 236.633 18.3581C230.64 18.3167 224.39 18.3687 218.37 18.3439C218.016 18.3425 217.962 18.1818 217.658 18.1796C217.197 18.1769 216.026 18.3452 215.572 18.3446C213.874 18.3401 211.808 18.3243 210.898 18.3249C208.866 18.3277 207.473 18.2326 205.935 18.223C205.454 18.2195 203.021 18.4472 201.353 18.3653C201.05 18.3176 200.748 18.2696 200.446 18.2214C201.305 18.1591 203.559 18.0021 204.605 17.9821C206.162 17.9527 206.974 18.0884 207.549 18.0835C208.031 18.0792 210.49 17.9144 211.61 17.9077C211.958 17.9055 212.029 18.0795 212.327 18.0776C213.941 18.067 216.068 18.0523 217.468 17.8818C216.896 17.9384 220.466 18.0282 220.653 18.0264C220.974 18.0249 221.322 17.8684 221.977 17.8665C223.237 17.8633 223.077 18.1829 224.651 17.858C225.041 17.9495 225.431 18.0405 225.82 18.1308C225.844 17.7121 230.768 18.2547 232.169 17.7533C232.206 17.6992 225.807 17.55 225.279 17.5409C222.11 17.4933 217.421 17.6072 214.346 17.5336C213.42 17.5123 210.51 17.2369 210.291 17.241C209.937 17.2488 210.257 17.4084 210.104 17.4141C206.973 17.5358 208.535 17.2111 208.118 17.1174ZM346.069 18.0032C345.118 18.0097 344.167 18.0159 343.216 18.0219C343.285 17.9901 343.354 17.9584 343.423 17.9269C343.859 17.9342 344.294 17.9412 344.73 17.9479C345.065 17.9261 345.4 17.9046 345.735 17.8835C345.846 17.9236 345.958 17.9635 346.069 18.0032ZM348.414 17.8555C349.238 17.8329 349.279 17.8911 349.469 17.8917C350.037 17.8938 350.529 17.865 351.08 17.8598C350.445 18.0013 349.092 17.9596 348.414 17.8555ZM331.376 17.9664C331.562 17.9751 332.804 18.1563 334.216 17.9613C335.272 18.0078 336.329 18.0516 337.386 18.0927C335.591 18.0306 333.107 18.1476 332.228 18.1563C331.894 18.1591 331.83 18.0988 331.563 18.1008C330.026 18.1121 328.531 18.2756 328.374 18.065C329.828 18.1102 331.139 17.9569 331.376 17.9664ZM340.655 17.9412C340.901 17.9756 341.147 18.0095 341.393 18.043C340.504 18.054 339.615 18.0649 338.727 18.0759C338.967 18.0343 339.207 17.9932 339.448 17.9525C339.85 17.9487 340.253 17.945 340.655 17.9412ZM272.276 18.4016C272.825 18.3979 273.373 18.3941 273.921 18.3904C273.891 18.3345 273.264 18.3398 273.033 18.3034C273.034 18.3034 273.035 18.3034 273.036 18.3034C272.778 18.2622 272.889 18.1885 272.421 18.1593C272.373 18.24 272.324 18.3208 272.276 18.4016ZM45.4543 19.4461C44.5354 19.4405 36.0493 19.4886 36.7722 20.0694C37.1365 20.3579 40.0389 20.0809 40.8946 20.0796C42.0482 20.0785 45.1635 20.668 45.4543 19.4461ZM30.4251 19.421C30.2781 20.0154 35.5816 20.0677 36.1002 19.9625C35.9901 19.8803 35.8204 19.6964 35.6737 19.6553C34.9584 19.4586 31.5684 19.5759 30.4251 19.421ZM241.575 17.9253C242.003 18.0529 242.43 18.1795 242.858 18.305C242.745 18.1389 242.633 17.9724 242.52 17.8056C242.205 17.8453 241.89 17.8852 241.575 17.9253ZM200.102 18.3212C192.98 18.3471 185.857 18.3719 178.735 18.3956C179.362 18.2953 179.988 18.1957 180.614 18.097C186.752 18.1107 193.297 18.173 199.223 18.0141C199.516 18.1169 199.809 18.2193 200.102 18.3212ZM329.369 17.6421C327.544 17.6488 326.02 17.7169 324.035 17.6309C325.927 17.5321 326.863 17.6665 328.702 17.5301C328.703 17.5301 328.704 17.5301 328.705 17.5301C328.926 17.5678 329.148 17.6051 329.369 17.6421ZM288.627 17.8007C289.181 17.7151 289.736 17.6307 290.291 17.5475C289.624 17.549 288.956 17.5505 288.289 17.5521C288.402 17.6352 288.514 17.7181 288.627 17.8007ZM137.975 17.5615C136.067 17.9902 131.184 17.2188 129.632 17.7412C129.532 17.7763 130.454 17.9933 128.963 18.4274C130.09 18.3349 130.885 18.243 130.969 17.9079C131.303 18.0208 131.638 18.1332 131.972 18.2452C132.527 18.1576 133.082 18.0706 133.637 17.9841C133.576 18.3146 133.62 18.2963 134.473 18.0682C134.861 18.1504 135.25 18.2323 135.639 18.3138C135.803 18.1744 135.968 18.0352 136.133 17.8963C136.469 18.0893 136.806 18.2816 137.142 18.4732C138.454 18.2584 137.655 17.8888 137.975 17.5615ZM144.657 17.6322C144.347 17.56 135.497 17.8089 139.519 18.4439C140.564 18.4188 141.61 18.3939 142.655 18.3692C141.789 17.3175 144.638 18.2528 144.872 18.2715C145.991 18.3688 147.418 18.1164 148.23 18.1269C148.929 18.136 149.344 18.3188 149.835 18.3119C151.508 18.2894 154.152 18.2712 154.516 17.8547C153.215 17.849 151.893 17.8473 150.541 17.8609C149.11 17.877 147.852 17.4717 145.165 18.0359C144.5 17.9777 144.737 17.6498 144.657 17.6322ZM291.962 17.5624C291.895 17.7493 295.273 17.6909 295.294 17.6203C295.301 17.5785 294.201 17.5824 294.044 17.5668C294.043 17.5668 294.042 17.5668 294.041 17.5668C293.975 17.5599 294.308 17.4895 293.791 17.4709C293.181 17.5009 292.572 17.5314 291.962 17.5624ZM58.6532 18.0697C58.1967 17.746 47.7668 17.8772 47.4595 18.0407C47.3761 18.0855 47.4925 18.2326 47.4595 18.3178C49.8928 17.8388 53.3518 18.389 55.6615 18.4153C56.3053 18.4229 56.1129 18.1914 56.1494 18.1868C56.1509 18.1868 56.1524 18.1868 56.154 18.1868C56.5193 18.1863 58.1687 18.7447 58.6532 18.0697ZM126.292 17.9592C126.736 18.031 127.179 18.1024 127.623 18.1735C127.735 18.0296 127.848 17.886 127.96 17.7425C127.959 17.7425 127.958 17.7425 127.957 17.7425C127.402 17.8143 126.847 17.8865 126.292 17.9592ZM110.93 17.495C111.038 17.6021 111.146 17.709 111.254 17.8158C112.37 17.8287 113.487 17.8413 114.603 17.8538C114.491 17.9138 114.378 17.9737 114.266 18.0338C115.954 18.1884 116.653 17.8166 117.552 17.8683C117.551 17.8683 117.55 17.8683 117.549 17.8683C117.646 17.8743 117.763 18.0921 118.123 18.0984C118.948 18.1133 121.313 18.186 121.599 17.969C122.204 17.5067 117.444 17.7319 116.556 17.7127C116.155 17.7035 115.673 17.512 115.429 17.5076C115.161 17.5035 114.797 17.764 114.146 17.7572C113.955 17.7553 111.843 17.4493 110.93 17.495ZM91.2247 17.85C91.569 18.1071 92.2877 17.8567 92.5518 17.8984C92.6149 17.9081 92.1242 18.1245 92.719 18.1872C92.8873 18.0402 93.0555 17.8934 93.2238 17.7469C92.5574 17.7811 91.8911 17.8154 91.2247 17.85ZM297.637 17.4652C297.54 17.4468 295.727 17.4562 295.64 17.4685C294.553 17.6329 298.309 17.6041 297.637 17.4652ZM343.398 17.2886C342.564 17.1597 352.461 17.293 353.42 17.2822C353.372 17.3496 351.018 17.2825 352.251 17.3763C351.074 17.3256 347.821 17.3565 347.056 17.3411C346.591 17.3315 346.474 17.2649 346.404 17.2627C346.128 17.2542 343.692 17.3336 343.398 17.2886ZM361.597 17.3224C360.657 17.3124 359.716 17.3016 358.776 17.2901C359.885 17.2835 360.995 17.2773 362.105 17.2716C361.936 17.2883 361.766 17.3052 361.597 17.3224ZM362.78 17.2968C362.75 17.2441 365.942 17.2857 366.781 17.2743C365.835 17.3558 364.257 17.2789 362.78 17.2968ZM309.665 17.1256C308.195 17.0394 307.562 17.4231 309.351 17.2569C309.405 17.2514 309.727 17.13 309.665 17.1256ZM137.521 16.0409C137.271 16.0341 134.152 15.6638 133.971 15.838C133.4 16.3968 135.447 16.1805 136.133 16.3934C137.239 16.7369 135.612 17.0128 138.313 16.813C138.203 16.9233 138.092 17.0338 137.982 17.1444C139.562 17.1815 139.045 16.4183 139.329 16.3209C139.415 16.2914 140.404 16.3591 140.582 16.3112C142.81 15.7108 137.754 16.0461 137.521 16.0409ZM273.257 17.019C270.329 16.8525 271.588 17.0899 268.584 17.0711C268.483 17.1942 272.876 17.1211 273.257 17.019ZM166.033 16.5669C163.005 16.6454 160.515 16.3442 157.69 16.7308C157.874 17.3382 166.819 16.7143 166.033 16.5669ZM23.7467 15.1733C35.5293 16.9029 49.1201 16.3483 61.6649 16.3756C63.032 16.3773 63.1631 16.7123 63.6578 16.6768C63.9819 16.6539 63.9252 16.3847 64.3559 16.3847C79.9227 16.376 94.8281 16.1075 109.74 16.304C110.679 16.3191 115.249 16.8203 116.225 16.0869C116.963 15.5319 113.68 15.9508 113.133 15.9444C112.722 15.9389 112.705 15.6729 112.431 15.6704C112.14 15.6679 112.38 15.851 112.043 15.8521C110.612 15.8579 109.051 15.7784 107.757 15.7874C95.0721 15.8755 82.7308 15.7793 70.1123 15.6872C68.5849 15.6768 68.8989 15.4328 68.822 15.4314C68.821 15.432 68.82 15.4326 68.819 15.4332C60.6294 15.3578 51.2764 15.8889 42.6022 15.6287C36.494 15.4184 30.3857 15.1987 24.2775 14.9699C24.1005 15.0376 23.9236 15.1054 23.7467 15.1733ZM143.988 16.7416C143.226 16.0221 143.056 16.7459 140.321 16.4433C140.099 16.5666 139.876 16.6901 139.654 16.814C141.1 16.7894 142.546 16.7653 143.993 16.7416C143.991 16.7416 143.99 16.7416 143.988 16.7416ZM125.929 16.4237C125.467 15.3859 119.352 16.0884 116.599 15.8763C116.095 16.4121 120.097 16.1854 121.041 16.2455C121.512 16.2764 124.036 16.8222 125.955 16.5294C125.946 16.4942 125.937 16.4589 125.929 16.4237ZM333.044 16.9069C332.599 16.9119 332.154 16.9171 331.709 16.9225C332.822 16.9576 333.936 16.9914 335.049 17.0237C333.273 16.9986 331.497 16.972 329.721 16.9441C330.052 16.8893 330.382 16.8353 330.713 16.7821C331.49 16.8249 332.267 16.8665 333.044 16.9069ZM327.281 16.9044C330.392 16.8985 327.145 17.037 326.368 16.9651C325.904 16.9208 326.964 16.905 327.281 16.9044ZM319.191 16.7512C320.642 16.6478 323.573 16.6652 322.531 16.8741C320.964 16.7628 319.953 16.8429 317.68 16.7681C318.012 16.726 318.344 16.6844 318.676 16.6434C318.677 16.6434 318.679 16.6434 318.68 16.6434C318.851 16.6796 319.021 16.7155 319.191 16.7512ZM328.702 16.7906C330.739 16.9178 324.841 16.8439 326.695 16.7768C326.782 16.7738 328.622 16.7857 328.702 16.7906ZM36.7722 14.2163C36.5268 14.5401 38.0936 14.5458 38.6148 14.5714C40.8742 14.6841 43.772 14.5657 46.1217 14.6276C45.9448 14.5219 45.7678 14.416 45.5909 14.31C42.6513 14.2789 39.7117 14.2477 36.7722 14.2163ZM53.4722 14.6846C55.0867 14.6967 56.7012 14.7088 58.3157 14.7208C58.4661 14.7218 59.1719 14.465 58.6471 14.3968C56.9221 14.4911 55.1971 14.587 53.4722 14.6846ZM154.18 15.4383C152.942 15.303 156.507 14.7039 156.346 15.3766C155.624 15.3969 154.902 15.4175 154.18 15.4383ZM165.699 15.2661C164.922 15.321 164.146 15.3766 163.37 15.4327C163.369 15.3575 163.368 15.2822 163.367 15.207C164.144 15.2268 164.921 15.2465 165.699 15.2661ZM30.4251 13.9292C31.2474 14.3374 33.2091 14.2907 34.4325 14.3091C33.5899 13.9612 31.5815 14.1114 30.4251 13.9292ZM135.633 15.0053C135.733 15.2019 130.809 15.113 132.514 14.7782C133.553 14.8547 134.593 14.9304 135.633 15.0053ZM125.631 14.6188C126.687 14.5847 127.505 14.6622 127.288 14.9772C126.728 14.959 126.168 14.9407 125.608 14.9223C125.616 14.8211 125.623 14.7199 125.631 14.6188ZM313.67 16.5207C311.89 16.5143 310.11 16.5085 308.331 16.5033C308.397 16.4743 308.463 16.4453 308.529 16.4164C310.244 16.4229 311.96 16.43 313.676 16.4376C313.674 16.4653 313.672 16.493 313.67 16.5207ZM29.4187 12.8652C28.1964 12.9274 26.9741 12.9903 25.7519 13.054C26.9752 13.1473 28.1984 13.2399 29.4217 13.3316C29.4217 13.1755 29.4217 13.0193 29.4217 12.8632C29.4207 12.8639 29.4197 12.8645 29.4187 12.8652ZM338.05 16.4721C332.613 16.3014 339.55 16.302 340.985 16.4569C340.986 16.4568 340.988 16.4567 340.99 16.4566C341.115 16.4699 340.849 16.523 341.059 16.5484C340.505 16.5161 339.952 16.4832 339.399 16.4496C338.894 16.4754 338.389 16.5019 337.884 16.5293C337.718 16.5142 337.552 16.499 337.386 16.4837C337.607 16.4798 337.829 16.4759 338.05 16.4721ZM359.992 16.7188C364.922 16.791 359.878 16.8223 357.438 16.7133C357.455 16.6944 359.538 16.7118 359.992 16.7188ZM347.073 16.57C346.296 16.5713 345.519 16.5731 344.742 16.5754C344.643 16.559 344.544 16.5425 344.445 16.526C345.041 16.5188 345.637 16.512 346.233 16.5058C346.513 16.5274 346.793 16.5488 347.073 16.57ZM321.525 15.9055C320.275 15.859 318.68 16.0765 322.694 16.0745C322.692 16.0495 322.69 16.0244 322.688 15.9993C322.528 16.0007 322.058 16.0167 322.033 16.0145C321.959 16.0069 322.046 15.9242 321.525 15.9055ZM369.121 16.569C369.261 16.5672 369.338 16.463 370.798 16.6056C371.239 16.6087 371.681 16.6121 372.122 16.6157C372.236 16.6403 372.35 16.6647 372.464 16.6887C370.756 16.6363 370.575 16.6789 370.451 16.6777C369.883 16.6711 370.304 16.655 369.937 16.6473C368.991 16.6274 366.842 16.6016 367.817 16.5467C368.168 16.5278 368.981 16.57 369.121 16.569ZM365.781 16.4269C365.988 16.4417 365.321 16.4618 365.477 16.4756C365.614 16.4881 367.673 16.5674 367.116 16.6129C366.778 16.6039 366.44 16.5948 366.102 16.5857C365.987 16.5672 365.872 16.5486 365.758 16.5298C365.431 16.5381 365.103 16.5467 364.776 16.5558C364.224 16.5041 363.051 16.4213 364.445 16.4189C363.932 16.4106 363.42 16.4025 362.907 16.3944C362.642 16.4092 362.377 16.4245 362.111 16.4401C362.25 16.4106 362.389 16.3814 362.528 16.3526C363.613 16.3773 364.697 16.402 365.781 16.4269ZM381.666 16.8118C381.604 16.8189 381.542 16.8261 381.479 16.8334C383.361 16.8597 386.292 16.9222 384.627 16.9307C382.078 16.8818 379.529 16.8345 376.979 16.7889C376.81 16.7775 376.641 16.766 376.471 16.7544C378.373 16.8235 377.786 16.6862 379.44 16.7606C379.719 16.7728 378.91 16.795 380.663 16.8087C380.6 16.7982 380.538 16.7877 380.476 16.777C380.873 16.7887 381.269 16.8003 381.666 16.8118ZM397.845 17.195C394.622 17.1168 398.172 17.1933 398.767 17.2132C398.766 17.2131 398.765 17.2131 398.764 17.2131C400.394 17.2606 396.888 17.1788 396.674 17.1735C396.39 17.166 395.727 17.172 394.181 17.1099C395.402 17.1385 396.623 17.1668 397.845 17.195ZM387.324 16.9449C387.595 16.9501 387.445 16.9559 387.562 16.9584C387.563 16.9585 387.564 16.9585 387.565 16.9585C389.29 16.9951 393.393 17.0877 393.837 17.1138C392.561 17.0866 386.848 16.973 386.502 16.9429C386.776 16.9433 387.05 16.944 387.324 16.9449ZM375.187 16.7006C374.128 16.6404 376.512 16.6915 377.137 16.7213C377.255 16.7266 376.284 16.7604 375.187 16.7006ZM293.961 14.5451C291.631 14.5734 294.692 14.7348 293.633 14.844C294.078 14.8426 294.523 14.8413 294.968 14.8401C294.632 14.7426 294.296 14.6443 293.961 14.5451ZM187.741 11.3091C187.198 11.2624 187.455 11.4325 187.408 11.4335C187.051 11.4193 186.715 11.277 186.578 11.2872C184.047 11.4871 185.73 11.6723 185.756 11.7041C185.809 11.8676 185.144 12.0422 186.066 12.2494C186.625 12.205 187.184 12.161 187.744 12.1175C188.022 12.2136 188.299 12.3094 188.577 12.4049C189.689 12.2397 188.234 12.1537 188.069 11.8949C188.006 11.7928 189.051 11.7023 187.741 11.3091ZM289.786 14.1566C289.409 14.2935 288.483 14.4597 289.392 14.6312C289.393 14.6312 289.394 14.6312 289.395 14.6313C289.563 14.6626 290.248 14.6935 290.458 14.7363C291.958 14.5749 291.384 14.3647 289.786 14.1566ZM197.776 11.1067C198.678 11.197 199.581 11.2863 200.483 11.3749C200.467 11.5339 200.452 11.6929 200.437 11.8519C199.954 11.7959 199.471 11.7396 198.988 11.6829C198.819 11.7515 198.65 11.8203 198.48 11.8893C199.08 12.0888 199.679 12.2867 200.279 12.483C201.001 12.4366 201.723 12.3909 202.445 12.3458C202.113 12.2543 201.781 12.1624 201.449 12.07C203.214 12.024 202.83 12.3983 204.291 12.5786C204.791 12.4456 205.291 12.3138 205.791 12.183C206.515 12.3464 207.239 12.5081 207.963 12.6682C209.18 12.6303 209.287 12.5259 208.468 12.3427C209.073 12.173 209.736 12.481 210.464 12.4241C210.524 12.4196 210.411 12.2436 210.464 12.2428C214.231 12.2276 214.031 12.6687 214.633 12.7021C215.057 12.7248 216.752 12.4694 216.779 12.3697C216.812 12.2375 213.286 11.59 218.807 11.7434C215.953 11.2847 212.708 11.5659 214.806 12.1802C213.903 12.0993 209.919 12.1303 209.665 12.1071C209.295 12.0715 209.424 11.8599 208.961 11.8412C208.687 11.8291 207.96 12.3074 205.791 11.8118C205.514 11.8863 205.237 11.9612 204.959 12.0364C204.7 11.9616 204.44 11.8865 204.18 11.8112C204.715 11.5829 205.25 11.3567 205.785 11.1324C203.666 11.3308 201.908 10.7757 200.618 11.1597C199.502 11.0763 198.96 11.0097 199.439 10.806C199.104 10.7952 198.769 10.7845 198.434 10.7738C198.215 10.8844 197.996 10.9954 197.776 11.1067ZM282.941 14.1903C281.832 14.0141 281.433 14.3219 281.606 14.3446C282.578 14.4666 283.518 14.2807 282.941 14.1903ZM189.754 11.6635C190.977 11.8406 192.2 12.0152 193.424 12.1873C193.424 12.0128 193.424 11.8383 193.424 11.6638C192.2 11.6632 190.977 11.6631 189.754 11.6635ZM294.302 14.351C294.414 14.4217 294.527 14.4921 294.639 14.5624C295.979 14.3527 297.309 14.736 297.972 14.68C298.115 14.6682 297.825 14.5456 297.551 14.5134C297.381 14.494 294.539 14.3352 294.302 14.351ZM350.081 15.8885C349.582 15.8969 349.083 15.906 348.584 15.9157C348.612 15.8787 348.639 15.8417 348.667 15.8047C348.913 15.8046 349.16 15.8045 349.406 15.8045C349.631 15.8328 349.856 15.8608 350.081 15.8885ZM344.402 15.8C343.511 15.7737 342.621 15.7472 341.731 15.7206C345.127 15.7713 342.34 15.6786 344.402 15.6816C344.402 15.721 344.402 15.7605 344.402 15.8ZM335.39 15.4716C335.499 15.4465 335.609 15.4216 335.718 15.3967C336.608 15.4221 337.499 15.4476 338.389 15.473C337.826 15.3637 337.263 15.252 336.7 15.1378C336.374 15.1268 336.047 15.1159 335.721 15.1049C335.611 15.2265 335.5 15.3488 335.39 15.4716ZM163.69 9.88862C163.152 9.86523 161.28 10.1145 161.36 10.2307C162.138 10.3925 162.916 10.553 163.694 10.7122C163.697 10.5125 163.701 10.3128 163.704 10.1131C163.814 10.2159 163.924 10.3185 164.034 10.421C164.477 10.3592 164.919 10.2978 165.361 10.2368C165.584 10.4168 165.807 10.5963 166.03 10.7754C166.254 10.5841 166.478 10.3935 166.702 10.2034C164.566 9.78849 164.64 10.1406 164.195 10.124C163.97 10.1156 163.827 9.98766 163.747 9.92294C163.728 9.9115 163.709 9.90006 163.69 9.88862ZM190.599 10.5577C188.049 10.4302 186.591 10.862 184.746 10.4046C185.93 11.2898 193.571 10.6567 196.265 11.4176C196.545 11.2958 196.825 11.1746 197.104 11.0539C195.637 11.1251 194.621 10.8261 193.905 10.7643C193.337 10.7155 193.397 10.8552 193.353 10.8519C193.351 10.8518 193.349 10.8518 193.347 10.8517C192.017 10.7541 191.605 10.6072 190.599 10.5577ZM296.196 14.0761C295.511 13.9498 294.312 13.9218 294.299 14.0786C294.966 14.1439 295.633 14.2084 296.301 14.2719C296.164 14.2286 296.313 14.0977 296.196 14.0761ZM334.354 15.168C333.819 15.1189 332.556 15.1076 333.101 15.2114C333.199 15.2297 334.457 15.2069 333.719 15.34C334.945 15.3723 334.658 15.1964 334.354 15.168ZM234.18 12.4455C234.63 12.4515 235.08 12.4575 235.53 12.4635C235.635 12.3689 235.74 12.2744 235.845 12.18C235.29 12.2675 234.735 12.356 234.18 12.4455ZM301.98 14.151C302.579 14.4559 303.601 14.2101 304.724 14.4746C305.138 14.4883 305.553 14.5021 305.968 14.5158C305.969 14.5159 305.97 14.5159 305.971 14.5159C305.982 14.4409 305.993 14.3659 306.005 14.2909C304.663 14.2445 303.322 14.1979 301.98 14.151ZM206.119 11.3582C206.397 11.438 206.674 11.5175 206.951 11.5967C207.444 11.5283 207.938 11.4605 208.431 11.3933C208.164 11.3262 207.897 11.2589 207.631 11.1914C207.127 11.2465 206.623 11.3021 206.119 11.3582ZM309.271 14.3569C307.82 14.2764 307.275 14.4969 309.13 14.5517C309.912 14.574 310.791 14.4397 309.271 14.3569ZM135.976 9.27527C136.473 9.34697 136.97 9.41834 137.468 9.4894C137.637 9.35556 137.806 9.22198 137.975 9.08867C137.309 9.15025 136.643 9.21245 135.976 9.27527ZM341.233 15.401C341.175 15.4312 341.117 15.4614 341.059 15.4918C340.615 15.4722 340.172 15.4526 339.728 15.4327C339.84 15.4035 339.951 15.3745 340.063 15.3456C340.453 15.3642 340.843 15.3827 341.233 15.401ZM139.321 9.46075C139.718 9.49892 140.116 9.53697 140.513 9.5749C140.78 9.51607 141.047 9.45743 141.314 9.399C140.942 9.32172 140.57 9.24415 140.199 9.1663C139.906 9.26409 139.613 9.36224 139.321 9.46075ZM323.022 14.8107C322.464 14.7419 320.234 14.8325 322.243 14.933C323.523 14.9958 323.106 14.8211 323.022 14.8107ZM326.031 14.8572C323.905 14.6982 325.499 15.213 328.036 14.9915C325.482 14.9532 326.156 14.8667 326.031 14.8572ZM344.725 15.2747C344.779 15.2767 344.823 15.3287 345.25 15.3451C346.788 15.4044 348.817 15.492 349.917 15.5317C352.561 15.6232 360.659 15.8352 361.606 15.9698C361.804 15.9977 361.35 16.048 361.43 16.054C361.665 16.0702 363.02 16.0809 362.769 16.1195C361.44 16.0795 360.111 16.0395 358.782 15.9995C359.108 15.9733 359.434 15.948 359.761 15.9234C356.449 15.836 357.545 15.8687 356.593 15.921C356.032 15.8723 355.472 15.8224 354.911 15.7714C353.691 15.7652 352.471 15.7616 351.25 15.7606C351.527 15.7423 351.804 15.7244 352.08 15.707C350.242 15.5996 350.753 15.6468 349.747 15.6821C349.745 15.6546 349.743 15.6271 349.741 15.5997C347.966 15.6104 347.62 15.5157 347.232 15.5015C346.437 15.4686 345.423 15.8003 342.389 15.3435C341.109 15.4815 341.139 15.1155 340.387 15.2781C338.221 14.9972 342.339 15.2154 344.288 15.2887C344.289 15.2888 344.29 15.2888 344.291 15.2888C344.438 15.2945 344.205 15.2538 344.725 15.2747ZM333.602 15.0939C334.913 14.9528 329.734 14.7561 331.448 15.092C331.703 15.109 331.959 15.1259 332.214 15.1426C332.678 15.1258 333.141 15.1096 333.605 15.094C333.604 15.094 333.603 15.0939 333.602 15.0939ZM284.943 13.3213C280.146 13.2924 282.873 13.5711 284.498 13.4419C284.822 13.4169 285 13.3742 284.943 13.3213ZM186.955 9.99255C186.885 10.0603 186.815 10.1282 186.745 10.1961C188.354 10.1847 191.464 10.5521 191.422 10.0876C189.933 10.0555 188.444 10.0238 186.955 9.99255ZM199.68 10.1333C199.335 10.0944 197.923 9.98014 198.094 10.1541C198.705 10.2944 199.317 10.4337 199.929 10.5719C200.214 10.5077 200.498 10.4438 200.783 10.3802C200.386 10.3418 199.774 10.1437 199.68 10.1333Z" fill="var(--stroke-0, #FEB05D)"/>
</svg>
