<svg preserveAspectRatio="none" width="100%" height="100%" overflow="visible" style="display: block;" viewBox="0 0 385 1" fill="none" xmlns="http://www.w3.org/2000/svg">
<path id="Line 1" d="M3.66715 0.00508493C5.82458 -0.00794148 8.65263 0.00598687 10.8019 0.0251043C11.4755 0.0310336 11.1344 0.0575377 11.5994 0.062824C12.5088 0.0731291 13.356 0.0601305 14.2547 0.0724065C14.5526 0.0766045 14.1818 0.118587 14.4941 0.122028C16.2055 0.140582 17.8245 0.129888 19.5581 0.138812C28.0973 0.182843 36.4911 0.198602 45.1348 0.217731C47.9849 0.224002 51.4494 0.262103 54.3932 0.245441C54.7369 0.243458 54.532 0.206608 54.5974 0.203571C55.6229 0.157075 55.2819 0.231467 55.9515 0.241351C58.609 0.280377 61.5641 0.283771 64.1217 0.269549C65.2097 0.263391 64.1188 0.190198 65.2143 0.23128C65.2904 0.234056 65.0144 0.273188 65.3127 0.277362C65.9894 0.286749 67.2733 0.279755 67.7977 0.282855C68.8084 0.289028 68.9757 0.288635 69.9317 0.289081C71.2386 0.290031 72.793 0.309483 74.1952 0.300616C74.4945 0.298607 74.0983 0.258493 74.5756 0.251666C75.0534 0.244851 76.3172 0.248252 76.7433 0.257709C77.1696 0.26717 76.9881 0.298699 77.0635 0.305926C77.684 0.366925 79.146 0.282442 79.3341 0.280353C82.7638 0.244753 85.705 0.29288 88.9244 0.292743C91.3685 0.292536 93.9818 0.276648 96.3074 0.278827C99.078 0.281578 101.426 0.303315 104.118 0.299579C104.402 0.29923 104.069 0.252065 104.416 0.251544C108.102 0.246056 111.762 0.251197 115.432 0.283038C115.8 0.286273 115.326 0.327684 115.694 0.333392C117.945 0.367424 121.507 0.449179 122.845 0.268878C124.37 0.275918 126.221 0.283193 127.585 0.319537C128.465 0.342929 127.611 0.388042 128.691 0.368792C128.935 0.364503 128.618 0.324995 128.984 0.321551C130.522 0.307088 132.204 0.31993 133.726 0.299518C134.036 0.295273 133.951 0.259872 134.039 0.253497C134.776 0.201871 136.004 0.287213 136.271 0.293414C138.309 0.339658 139.797 0.32146 141.695 0.322589C142.135 0.322871 141.615 0.27532 142.039 0.273883C144.237 0.267068 146.514 0.271155 148.667 0.292254C149.145 0.297062 148.705 0.337567 148.934 0.341937C149.943 0.360712 150.166 0.284209 151.134 0.300738C151.338 0.304125 151.223 0.3388 151.26 0.342608C151.843 0.402389 152.349 0.317684 152.498 0.315814C154.393 0.290261 155.604 0.378689 157.435 0.366168C157.653 0.36458 157.16 0.320706 157.775 0.318927C161.876 0.306815 166.213 0.318867 170.272 0.353961C170.903 0.359358 170.453 0.392317 170.492 0.39638C171.14 0.459864 171.559 0.374803 171.764 0.3716C173.388 0.348541 174.904 0.419874 176.007 0.31856C182.883 0.35372 189.726 0.296827 196.545 0.387591C196.632 0.388642 196.476 0.430535 196.649 0.432452C198.732 0.455974 198.332 0.390866 199.71 0.311236C200.057 0.291241 201.113 0.38738 201.207 0.394427C201.547 0.420396 201.194 0.48272 201.308 0.487749C202.251 0.527241 202.097 0.32113 203.37 0.321063C203.41 0.321407 203.243 0.359344 203.349 0.363116C203.681 0.374958 204.01 0.359883 204.335 0.372943C205.078 0.403161 205.343 0.503313 206.478 0.445025C206.621 0.43746 206.402 0.320545 207.538 0.326068C207.991 0.328369 209.996 0.326365 210.557 0.333941C211.119 0.341509 210.733 0.379185 210.773 0.380816C212.286 0.430636 211.712 0.451284 212.47 0.525042C213.227 0.598522 213.017 0.423265 213.326 0.403704C213.635 0.384199 214.744 0.425303 215.016 0.439593C215.289 0.453888 214.949 0.477829 215.191 0.485918C216.797 0.538773 215.896 0.398928 216.425 0.371112C217.672 0.305249 218.643 0.435219 219.785 0.447955C220.094 0.451394 219.842 0.421792 220.117 0.419024C221.207 0.408452 221.862 0.449006 223.101 0.411822C223.304 0.405762 224.306 0.327621 224.955 0.384966C225.047 0.393236 224.786 0.425624 225.25 0.432879C225.944 0.443767 227.193 0.450846 227.939 0.44002C228.49 0.43201 227.859 0.378642 228.552 0.39522C228.859 0.402623 228.289 0.433844 228.867 0.445147C229.443 0.456447 230.914 0.455075 231.474 0.453997C232.033 0.452895 231.727 0.412413 231.772 0.409686C232.046 0.394063 233.118 0.374542 233.213 0.374591C237.994 0.369649 242.403 0.437886 247.058 0.415301C247.423 0.413587 247.18 0.370898 247.236 0.370196C248.486 0.35231 247.5 0.465811 248.374 0.503802C248.248 0.417172 248.764 0.432858 249.644 0.423357C250.069 0.418709 249.838 0.385165 249.876 0.381732C250.506 0.330783 250.944 0.39659 251.057 0.410052C251.474 0.459572 251.928 0.401061 252.212 0.434161C252.495 0.467013 251.843 0.515717 252.688 0.515093C252.924 0.484083 252.297 0.403044 252.939 0.38991C255.359 0.340231 259.877 0.403813 261.823 0.410418C263.765 0.417017 264.392 0.411296 265.524 0.422503C267.568 0.442767 266.819 0.382641 268.088 0.35512C269.361 0.327603 268.742 0.475539 268.925 0.507342C269.105 0.53913 269.301 0.506407 269.524 0.523882C269.747 0.541353 269.265 0.562976 269.789 0.569536C270.313 0.57609 271.746 0.519537 271.931 0.486285C272.324 0.415836 271.678 0.341897 273.065 0.367877C273.145 0.369419 272.886 0.408318 273.191 0.412249C275.617 0.442195 278.137 0.444052 280.56 0.470538C280.893 0.47424 280.595 0.517514 280.789 0.520159C282.808 0.547838 282.086 0.474872 283.193 0.393817C282.945 0.501684 283.557 0.567679 285.089 0.568316C286.01 0.568736 285.852 0.521625 286.448 0.488421C286.626 0.478411 287.278 0.51076 287.396 0.488604C287.786 0.41618 287.172 0.335106 288.752 0.367388C288.821 0.368923 288.601 0.408567 288.84 0.410967C290.388 0.426682 290.574 0.350928 292.247 0.341754C293.559 0.334555 295.892 0.380749 297.386 0.388262C297.355 0.509537 298.766 0.481767 299.338 0.39815C300.308 0.401573 301.355 0.396846 302.292 0.408404C302.614 0.412344 302.402 0.447457 302.443 0.45125C303.066 0.510765 303.488 0.429415 303.697 0.426226C305.965 0.395224 307.813 0.456881 309.977 0.396624C310.054 0.394454 310.178 0.310213 310.757 0.371722C310.794 0.375962 310.079 0.41429 311.098 0.417254C312.116 0.420225 314.036 0.465384 315.449 0.426348C315.791 0.416951 316.657 0.348564 317.351 0.401995C317.444 0.409251 317.343 0.433411 317.476 0.446856C317.908 0.489695 318.144 0.404549 318.651 0.476885C319.158 0.549219 320.214 0.603391 321.64 0.553484C321.685 0.552033 322.023 0.484546 322.471 0.485613C323.187 0.487375 324.203 0.501433 324.95 0.500994C325.308 0.500759 325.079 0.458853 325.141 0.458086C327.547 0.434604 329.259 0.471963 331.837 0.488177C332.309 0.491232 333.667 0.434086 334.582 0.479266C335.586 0.528723 334.554 0.734456 336.862 0.685442C337.794 0.665837 338.972 0.404826 340.646 0.540056C343.891 0.506547 346.892 0.575757 350.146 0.52791C350.293 0.525791 350.756 0.452945 351.1 0.453936C351.61 0.455549 351.891 0.489596 352.255 0.491839C353.784 0.502094 355.182 0.472965 356.656 0.477495C357.215 0.479142 357.019 0.514346 357.687 0.516314C358.353 0.518249 358.798 0.471891 359.702 0.49428C360.384 0.511346 361.066 0.606099 361.972 0.617144C362.007 0.52368 362.629 0.525605 363.734 0.500933C363.947 0.496146 363.719 0.463616 363.82 0.459673C364.229 0.442907 364.608 0.469868 364.996 0.451617C365.091 0.447233 365.095 0.415315 365.172 0.40993C365.829 0.362924 366.912 0.434721 367.098 0.447222C367.81 0.494698 368.143 0.453185 368.69 0.47188C369.235 0.490574 368.42 0.513942 369.057 0.525286C370.378 0.548749 372.076 0.543594 373.417 0.545061C373.953 0.545449 373.587 0.502843 373.664 0.501909C374.771 0.491103 375.891 0.536424 376.504 0.451556C377.272 0.670994 377.172 0.430271 378.754 0.4742C378.879 0.477753 379.038 0.581523 378.559 0.596758C378.081 0.611978 377.355 0.579541 376.691 0.603289C376.534 0.608862 375.633 0.706102 375.51 0.711992C374.548 0.758027 374.411 0.602956 374.36 0.594438C373.783 0.502523 372.682 0.60728 372.392 0.614519C371.066 0.647687 369.94 0.625878 368.831 0.649553C368.105 0.664854 368.034 0.766432 367.465 0.763322C365.572 0.753046 364.911 0.611344 363.126 0.734209C362.744 0.760413 363.124 0.871434 361.753 0.784135C361.667 0.778632 360.649 0.698769 360.061 0.749284C359.987 0.755653 359.99 0.788009 359.892 0.790727C359.24 0.808308 358.804 0.782532 358.093 0.794877C357.382 0.807223 356.527 0.825627 355.716 0.814653C355.226 0.80809 354.599 0.747808 354.364 0.733049C353.703 0.690533 352.994 0.760241 352.584 0.708757C352.171 0.657014 352.979 0.578433 351.896 0.545C351.855 0.629062 351.763 0.715343 351.699 0.799882C349.325 0.796922 346.989 0.76974 344.607 0.773454C344.311 0.773999 344.613 0.819191 344.297 0.820939C342.961 0.828119 341.794 0.795903 340.409 0.808732C339.337 0.818836 338.161 0.866685 337.04 0.878739C336.355 0.782549 334.692 0.815203 333.483 0.806413C333.06 0.803376 333.088 0.777685 332.787 0.769304C331.651 0.738306 332.183 0.823309 331.872 0.836686C330.536 0.893778 330.422 0.701379 328.846 0.706133C328.763 0.706319 327.743 0.808876 327.602 0.815263C326.71 0.856909 327.455 0.779567 326.896 0.771989C325.876 0.758142 325.167 0.733649 323.97 0.763688C323.621 0.772586 322.784 0.836509 322.107 0.787065C322.018 0.78059 322.067 0.746692 321.995 0.744707C320.696 0.711615 320.662 0.818129 319.92 0.854203C319.177 0.890269 318.031 0.816741 317.798 0.795549C317.187 0.740727 318.265 0.77212 318.298 0.76674C318.687 0.702717 317.851 0.71374 317.212 0.70833C317.119 0.603891 316.226 0.61016 316.549 0.703142C316.586 0.713298 317.083 0.703558 317.212 0.70833C316.651 0.810799 315.669 0.823922 314.584 0.728166C314.077 0.683287 314.557 0.63096 313.014 0.650102C312.314 0.658744 312.585 0.730655 311.967 0.750261C310.556 0.794993 308.722 0.727912 307.267 0.738481C306.739 0.742318 307.254 0.781682 306.893 0.785661C305.935 0.796343 305.091 0.766808 304.129 0.781938C304.042 0.783359 304.255 0.824565 303.956 0.82509C301.688 0.829875 299.714 0.803482 297.347 0.802751C296.203 0.802416 294.158 0.825142 292.973 0.820573C290.919 0.812897 288.393 0.752977 286.639 0.767534C285.494 0.776851 285.745 0.818066 285.255 0.846147C284.309 0.900579 282.634 0.803078 282.409 0.78798C282.402 0.787481 283.386 0.777765 282.861 0.756608C282.556 0.712525 282.42 0.787789 282.409 0.78798C282.261 0.778227 280.294 0.768871 279.903 0.77675C279.691 0.781055 279.81 0.820104 279.699 0.821611C277.069 0.856555 274.434 0.86648 271.767 0.848222C271.72 0.847433 271.791 0.803755 271.68 0.802446C270.136 0.783025 269.147 0.836457 267.873 0.86818C266.6 0.899889 265.59 0.889269 264.836 0.814286C263.875 0.823727 262.497 0.790578 261.704 0.770463C260.91 0.750349 260.8 0.835372 260.73 0.837052C258.553 0.89085 257.294 0.842185 255.036 0.834611C253.962 0.830865 251.832 0.843197 250.67 0.852494C249.751 0.859984 249.197 0.840059 248.351 0.8528C248.236 0.854501 248.352 0.892357 248.317 0.893815C247.372 0.939108 247.826 0.846562 247.631 0.830033C246.924 0.769927 246.487 0.737915 245.277 0.766191C244.998 0.772666 244.185 0.90592 243.676 0.913712C243.014 0.9236 243.264 0.875837 242.571 0.887406C242.512 0.888353 242.524 0.917819 242.097 0.91652C240.113 0.910877 237.949 0.893731 235.887 0.896684C235.606 0.896974 235.967 0.943712 235.56 0.944901C233.65 0.950441 231.557 0.948712 229.697 0.926835C229.239 0.921303 229.526 0.888578 229.427 0.878861C228.817 0.820069 227.951 0.905493 227.808 0.907121C224.402 0.948171 221.795 0.870864 218.324 0.90767C218.135 0.909831 216.68 1.00141 216.031 0.922868C215.987 0.917642 215.345 0.837289 214.777 0.892228C214.742 0.895665 215.142 0.937033 214.444 0.932816C213.745 0.928609 212.622 0.956234 211.662 0.910783C211.358 0.896465 210.64 0.816309 209.734 0.880204C209.675 0.884665 208.275 1.02914 207.776 0.929459C207.695 0.913051 207.78 0.807566 206.698 0.86165C206.491 0.872135 206.866 0.895663 206.322 0.910355C205.488 0.932999 204.382 0.904747 203.357 0.951737C203.178 0.960056 202.416 1.03165 201.806 0.977311C201.71 0.9688 201.892 0.933584 201.569 0.929643C200.036 0.910738 198.43 0.934294 196.872 0.909928C196.321 0.901367 196.603 0.844435 196.028 0.829179C195.453 0.813928 194.295 0.799257 193.693 0.825273C193.091 0.8513 193.748 0.942035 192.847 0.949296C188.928 0.98083 185.045 0.927602 181.131 0.919816C180.551 0.918653 181.032 0.951121 180.177 0.951737C177.023 0.954153 171.578 0.984595 168.842 0.915604C166.649 0.860347 169.408 0.818279 167.733 0.795793C166.924 0.785066 166.05 0.890555 165.854 0.893876C163.948 0.927611 162.623 0.880882 160.906 0.895219C160.552 0.898194 160.9 0.940949 160.598 0.943009C159.568 0.950424 158.485 0.93134 157.501 0.93483C157.059 0.936495 157.14 0.96915 156.734 0.96663C155.762 0.960975 154.902 0.947249 153.954 0.916642C153.867 0.913853 154.45 0.873231 153.731 0.87172C152.566 0.869391 151.121 0.839197 149.781 0.870378C149.384 0.879757 149.368 0.95439 148.514 0.902848C148.335 0.892083 148.563 0.802465 147.568 0.879899C147.401 0.892767 145.729 0.99721 144.908 0.929887C144.692 0.912168 144.139 0.838833 143.661 0.850358C143.597 0.852197 143.856 0.892285 143.46 0.896195C142.064 0.909279 140.601 0.905002 139.167 0.917558C138.784 0.92099 139.355 0.962473 138.784 0.966263C137.214 0.976749 135.255 0.966186 133.72 0.953202C133.154 0.948336 133.545 0.913973 133.504 0.910233C132.842 0.849408 132.451 0.931508 132.231 0.936295C130.864 0.96496 129.823 0.926395 128.564 0.936601C128.216 0.939313 128.462 0.978459 128.393 0.981949C127.675 1.01605 128.21 0.945754 127.756 0.938004C126.483 0.916062 125.064 0.919208 123.777 0.92421C123.304 0.926105 123.836 0.971496 123.412 0.972672C120.9 0.980494 118.29 0.97615 115.839 0.951127C115.378 0.946333 115.668 0.911381 115.572 0.903397C114.909 0.847545 113.937 0.923728 113.714 0.930985C112.698 0.964121 112.303 0.933212 111.405 0.938981C107.02 0.967705 101.607 0.947234 97.4676 0.934586C92.0742 0.918309 87.889 0.885059 82.7458 0.893693C82.4189 0.894198 82.7485 0.940695 82.4667 0.941727C78.8286 0.952936 75.2469 0.934767 71.6015 0.948197C71.3024 0.949217 71.7336 0.993296 71.2535 0.996415C70.2687 1.00312 69.0211 1.00072 68.0254 0.986649C67.5397 0.979868 68.1911 0.942043 67.7022 0.93599C66.5639 0.921809 65.3438 0.91867 64.1745 0.925736C63.677 0.92884 64.4277 0.973922 63.7809 0.974442C59.3754 0.978915 55.0487 0.986679 50.5968 0.9283C50.2915 0.92429 50.0238 0.832665 49.3748 0.850236C49.326 0.875664 49.3286 0.905576 49.3073 0.932755C42.894 0.947396 36.5461 0.915633 30.1148 0.910722C29.8436 0.910525 30.3123 0.959073 29.7873 0.958939C26.7489 0.958222 23.7984 0.971671 20.6904 0.923417C20.382 0.918698 20.5402 0.833291 19.6315 0.846208C19.4712 0.848565 18.1025 0.859955 17.7487 0.878495C17.7006 0.881292 17.9503 0.921156 17.5093 0.922318C14.9463 0.928372 12.2604 0.919271 9.70188 0.894914C9.28895 0.890906 9.72869 0.848454 9.43458 0.845231C7.34832 0.822696 5.07907 0.854967 3.08556 0.816423C1.75117 0.79047 2.2452 0.717087 1.53612 0.644853C1.43583 0.634662 0.609532 0.633047 0.566802 0.591021C0.4571 0.48534 0.857331 0.369621 0.693106 0.256976C0.65841 0.232713 -0.448212 0.258846 0.206979 0.200214C0.252752 0.19629 1.05506 0.17683 1.25267 0.15694C1.39025 0.143188 1.14232 0.100447 1.42303 0.0828434C1.70372 0.0652564 2.01216 0.101084 2.47753 0.080402C2.9427 0.0594636 2.73816 0.0108407 3.66715 0.00508493ZM258.132 0.680559C257.397 0.639728 257.289 0.789275 258.083 0.753496C258.122 0.751589 258.17 0.682562 258.132 0.680559ZM347.002 0.656938C346.042 0.590977 345.385 0.687966 346.062 0.738908C346.739 0.789796 347.295 0.676934 347.002 0.656938ZM356.96 0.608782C355.837 0.556775 355.661 0.768839 356.863 0.725969C356.933 0.723546 357.025 0.611802 356.96 0.608782ZM4.82445 0.624285C4.81431 0.622299 4.22034 0.620363 4.20614 0.622331C3.88987 0.669827 5.07757 0.673665 4.82445 0.624285ZM366.841 0.556353C366.49 0.527666 365.482 0.560781 365.917 0.596453C366.267 0.625149 367.277 0.592037 366.841 0.556353ZM219.816 0.520952C219.804 0.518724 219.379 0.516717 219.387 0.529314C219.416 0.569886 220.009 0.558436 219.816 0.520952ZM383.635 0.553911C381.154 0.545929 379.649 0.370754 382.351 0.390521C382.841 0.394097 381.297 0.446383 381.919 0.462176C383.059 0.490948 383.816 0.38096 384.979 0.439898C385.189 0.450686 383.776 0.554756 383.63 0.554155C383.632 0.554074 383.633 0.553993 383.635 0.553911ZM257.709 0.500933C257.694 0.498955 257.105 0.49708 257.091 0.499041C256.771 0.546518 257.959 0.550323 257.709 0.500933ZM194.968 0.428484C194.935 0.424271 193.567 0.420329 193.522 0.424212C192.809 0.50185 195.575 0.510048 194.968 0.428484ZM297.41 0.391497C298.053 0.343735 298.822 0.338112 299.335 0.398089C298.696 0.394905 298.052 0.394436 297.41 0.391497Z" fill="var(--stroke-0, black)" fill-opacity="0.6"/>
</svg>
