<svg preserveAspectRatio="none" width="100%" height="100%" overflow="visible" style="display: block;" viewBox="0 0 282.221 1" fill="none" xmlns="http://www.w3.org/2000/svg">
<path id="Line 1" d="M2.68817 0.00508493C4.26966 -0.00794148 6.34273 0.00598687 7.91824 0.0251043C8.41201 0.0310336 8.16198 0.0575377 8.50283 0.062824C9.16947 0.0731291 9.79053 0.0601305 10.4493 0.0724065C10.6676 0.0766045 10.3959 0.118587 10.6248 0.122028C11.8793 0.140582 13.0661 0.129888 14.3369 0.138812C20.5965 0.182843 26.7495 0.198602 33.0857 0.217731C35.1749 0.224002 37.7146 0.262103 39.8725 0.245441C40.1244 0.243458 39.9742 0.206608 40.0222 0.203571C40.7739 0.157075 40.5239 0.231467 41.0148 0.241351C42.9628 0.280377 45.1291 0.283771 47.0038 0.269549C47.8014 0.263391 47.0017 0.190198 47.8048 0.23128C47.8606 0.234056 47.6582 0.273188 47.877 0.277362C48.373 0.286749 49.3141 0.279755 49.6985 0.282855C50.4394 0.289028 50.562 0.288635 51.2628 0.289081C52.2208 0.290031 53.3603 0.309483 54.3882 0.300616C54.6076 0.298607 54.3171 0.258493 54.667 0.251666C55.0172 0.244851 55.9437 0.248252 56.2561 0.257709C56.5685 0.26717 56.4355 0.298699 56.4907 0.305926C56.9456 0.366925 58.0173 0.282442 58.1552 0.280353C60.6693 0.244753 62.8253 0.29288 65.1853 0.292743C66.9769 0.292536 68.8926 0.276648 70.5973 0.278827C72.6283 0.281578 74.3496 0.303315 76.3226 0.299579C76.5309 0.29923 76.2868 0.252065 76.5412 0.251544C79.2431 0.246056 81.9263 0.251197 84.6167 0.283038C84.8865 0.286273 84.5387 0.327684 84.8083 0.333392C86.4587 0.367424 89.07 0.449179 90.0502 0.268878C91.1681 0.275918 92.5253 0.283193 93.5254 0.319537C94.1703 0.342929 93.544 0.388042 94.3361 0.368792C94.5148 0.364503 94.2824 0.324995 94.5504 0.321551C95.6784 0.307088 96.9108 0.31993 98.0267 0.299518C98.2536 0.295273 98.1917 0.259872 98.256 0.253497C98.7965 0.201871 99.6962 0.287213 99.8924 0.293414C101.386 0.339658 102.477 0.32146 103.868 0.322589C104.191 0.322871 103.809 0.27532 104.12 0.273883C105.732 0.267068 107.401 0.271155 108.979 0.292254C109.33 0.297062 109.007 0.337567 109.175 0.341937C109.914 0.360712 110.078 0.284209 110.787 0.300738C110.937 0.304125 110.853 0.3388 110.88 0.342608C111.307 0.402389 111.678 0.317684 111.788 0.315814C113.177 0.290261 114.064 0.378689 115.406 0.366168C115.567 0.36458 115.205 0.320706 115.656 0.318927C118.662 0.306815 121.841 0.318867 124.817 0.353961C125.279 0.359358 124.949 0.392317 124.978 0.39638C125.452 0.459864 125.759 0.374803 125.91 0.3716C127.1 0.348541 128.212 0.419874 129.021 0.31856C134.061 0.35372 139.077 0.296827 144.076 0.387591C144.139 0.388642 144.025 0.430535 144.152 0.432452C145.679 0.455974 145.386 0.390866 146.396 0.311236C146.65 0.291241 147.424 0.38738 147.493 0.394427C147.742 0.420396 147.483 0.48272 147.567 0.487749C148.258 0.527241 148.146 0.32113 149.079 0.321063C149.108 0.321407 148.985 0.359344 149.063 0.363116C149.307 0.374958 149.548 0.359883 149.786 0.372943C150.331 0.403161 150.525 0.503313 151.357 0.445025C151.462 0.43746 151.301 0.320545 152.134 0.326068C152.466 0.328369 153.936 0.326365 154.347 0.333941C154.759 0.341509 154.476 0.379185 154.506 0.380816C155.614 0.430636 155.194 0.451284 155.749 0.525042C156.304 0.598522 156.15 0.423265 156.377 0.403704C156.604 0.384199 157.416 0.425303 157.616 0.439593C157.816 0.453888 157.567 0.477829 157.744 0.485918C158.921 0.538773 158.261 0.398928 158.648 0.371112C159.563 0.305249 160.275 0.435219 161.112 0.447955C161.338 0.451394 161.153 0.421792 161.355 0.419024C162.154 0.408452 162.634 0.449006 163.543 0.411822C163.691 0.405762 164.426 0.327621 164.901 0.384966C164.969 0.393236 164.777 0.425624 165.118 0.432879C165.626 0.443767 166.542 0.450846 167.089 0.44002C167.492 0.43201 167.03 0.378642 167.538 0.39522C167.763 0.402623 167.345 0.433844 167.769 0.445147C168.191 0.456447 169.27 0.455075 169.68 0.453997C170.09 0.452895 169.866 0.412413 169.899 0.409686C170.099 0.394063 170.885 0.374542 170.955 0.374591C174.46 0.369649 177.692 0.437886 181.104 0.415301C181.372 0.413587 181.193 0.370898 181.234 0.370196C182.151 0.35231 181.428 0.465811 182.069 0.503802C181.976 0.417172 182.354 0.432858 183 0.423357C183.311 0.418709 183.141 0.385165 183.17 0.381732C183.631 0.330783 183.953 0.39659 184.035 0.410052C184.341 0.459572 184.674 0.401061 184.882 0.434161C185.09 0.467013 184.611 0.515717 185.23 0.515093C185.404 0.484083 184.944 0.403044 185.415 0.38991C187.189 0.340231 190.5 0.403813 191.927 0.410418C193.35 0.417017 193.81 0.411296 194.64 0.422503C196.138 0.442767 195.589 0.382641 196.52 0.35512C197.453 0.327603 196.999 0.475539 197.133 0.507342C197.265 0.53913 197.409 0.506407 197.572 0.523882C197.736 0.541353 197.382 0.562976 197.766 0.569536C198.15 0.57609 199.201 0.519537 199.337 0.486285C199.625 0.415836 199.152 0.341897 200.168 0.367877C200.227 0.369419 200.037 0.408318 200.261 0.412249C202.039 0.442195 203.886 0.444052 205.662 0.470538C205.906 0.47424 205.688 0.517514 205.83 0.520159C207.31 0.547838 206.781 0.474872 207.592 0.393817C207.41 0.501684 207.859 0.567679 208.982 0.568316C209.657 0.568736 209.541 0.521625 209.978 0.488421C210.109 0.478411 210.587 0.51076 210.674 0.488604C210.959 0.41618 210.509 0.335106 211.667 0.367388C211.718 0.368923 211.556 0.408567 211.732 0.410967C212.867 0.426682 213.003 0.350928 214.229 0.341754C215.191 0.334555 216.901 0.380749 217.996 0.388262C217.973 0.509537 219.008 0.481767 219.427 0.39815C220.138 0.401573 220.905 0.396846 221.592 0.408404C221.829 0.412344 221.673 0.447457 221.703 0.45125C222.16 0.510765 222.469 0.429415 222.623 0.426226C224.285 0.395224 225.639 0.456881 227.226 0.396624C227.282 0.394454 227.374 0.310213 227.798 0.371722C227.825 0.375962 227.301 0.41429 228.048 0.417254C228.794 0.420225 230.201 0.465384 231.237 0.426348C231.488 0.416951 232.123 0.348564 232.632 0.401995C232.699 0.409251 232.625 0.433411 232.723 0.446856C233.04 0.489695 233.212 0.404549 233.584 0.476885C233.956 0.549219 234.73 0.603391 235.775 0.553484C235.809 0.552033 236.056 0.484546 236.385 0.485613C236.909 0.487375 237.654 0.501433 238.202 0.500994C238.464 0.500759 238.296 0.458853 238.342 0.458086C240.105 0.434604 241.361 0.471963 243.25 0.488177C243.596 0.491232 244.592 0.434086 245.262 0.479266C245.998 0.528723 245.242 0.734456 246.934 0.685442C247.617 0.665837 248.481 0.404826 249.707 0.540056C252.086 0.506547 254.286 0.575757 256.672 0.52791C256.779 0.525791 257.118 0.452945 257.371 0.453936C257.745 0.455549 257.95 0.489596 258.218 0.491839C259.338 0.502094 260.363 0.472965 261.443 0.477495C261.853 0.479142 261.71 0.514346 262.199 0.516314C262.688 0.518249 263.014 0.471891 263.676 0.49428C264.176 0.511346 264.677 0.606099 265.341 0.617144C265.366 0.52368 265.822 0.525605 266.632 0.500933C266.788 0.496146 266.621 0.463616 266.695 0.459673C266.995 0.442907 267.272 0.469868 267.557 0.451617C267.627 0.447233 267.63 0.415315 267.686 0.40993C268.168 0.362924 268.962 0.434721 269.098 0.447222C269.62 0.494698 269.864 0.453185 270.265 0.47188C270.665 0.490574 270.067 0.513942 270.534 0.525286C271.503 0.548749 272.747 0.543594 273.73 0.545061C274.123 0.545449 273.855 0.502843 273.911 0.501909C274.723 0.491103 275.544 0.536424 275.993 0.451556C276.556 0.670994 276.483 0.430271 277.643 0.4742C277.734 0.477753 277.85 0.581523 277.5 0.596758C277.149 0.611978 276.617 0.579541 276.13 0.603289C276.015 0.608862 275.355 0.706102 275.265 0.711992C274.559 0.758027 274.459 0.602956 274.422 0.594438C273.998 0.502523 273.191 0.60728 272.979 0.614519C272.007 0.647687 271.181 0.625878 270.368 0.649553C269.837 0.664854 269.785 0.766432 269.367 0.763322C267.979 0.753046 267.495 0.611344 266.187 0.734209C265.906 0.760413 266.185 0.871434 265.18 0.784135C265.117 0.778632 264.371 0.698769 263.94 0.749284C263.886 0.755653 263.887 0.788009 263.816 0.790727C263.338 0.808308 263.019 0.782532 262.497 0.794877C261.976 0.807223 261.349 0.825627 260.754 0.814653C260.396 0.80809 259.936 0.747808 259.764 0.733049C259.279 0.690533 258.759 0.760241 258.459 0.708757C258.156 0.657014 258.748 0.578433 257.954 0.545C257.925 0.629062 257.857 0.715343 257.81 0.799882C256.069 0.796922 254.357 0.76974 252.611 0.773454C252.395 0.773999 252.616 0.819191 252.384 0.820939C251.405 0.828119 250.549 0.795903 249.534 0.808732C248.748 0.818836 247.886 0.866685 247.064 0.878739C246.562 0.782549 245.343 0.815203 244.457 0.806413C244.147 0.803376 244.167 0.777685 243.947 0.769304C243.114 0.738306 243.504 0.823309 243.276 0.836686C242.297 0.893778 242.213 0.701379 241.058 0.706133C240.997 0.706319 240.249 0.808876 240.146 0.815263C239.492 0.856909 240.038 0.779567 239.628 0.771989C238.881 0.758142 238.361 0.733649 237.484 0.763688C237.228 0.772586 236.614 0.836509 236.118 0.787065C236.052 0.78059 236.088 0.746692 236.036 0.744707C235.084 0.711615 235.059 0.818129 234.515 0.854203C233.97 0.890269 233.13 0.816741 232.959 0.795549C232.511 0.740727 233.302 0.77212 233.326 0.76674C233.611 0.702717 232.998 0.71374 232.529 0.70833C232.462 0.603891 231.807 0.61016 232.044 0.703142C232.071 0.713298 232.435 0.703558 232.529 0.70833C232.118 0.810799 231.398 0.823922 230.603 0.728166C230.231 0.683287 230.583 0.63096 229.452 0.650102C228.939 0.658744 229.138 0.730655 228.685 0.750261C227.65 0.794993 226.306 0.727912 225.24 0.738481C224.853 0.742318 225.23 0.781682 224.965 0.785661C224.263 0.796343 223.644 0.766808 222.939 0.781938C222.875 0.783359 223.031 0.824565 222.812 0.82509C221.15 0.829875 219.703 0.803482 217.967 0.802751C217.129 0.802416 215.63 0.825142 214.761 0.820573C213.256 0.812897 211.404 0.752977 210.118 0.767534C209.279 0.776851 209.463 0.818066 209.104 0.846147C208.41 0.900579 207.183 0.803078 207.017 0.78798C207.012 0.787481 207.734 0.777765 207.349 0.756608C207.125 0.712525 207.026 0.787789 207.017 0.78798C206.909 0.778227 205.467 0.768871 205.181 0.77675C205.025 0.781055 205.112 0.820104 205.031 0.821611C203.103 0.856555 201.172 0.86648 199.216 0.848222C199.182 0.847433 199.234 0.803755 199.153 0.802446C198.021 0.783025 197.296 0.836457 196.362 0.86818C195.429 0.899889 194.689 0.889269 194.136 0.814286C193.432 0.823727 192.421 0.790578 191.84 0.770463C191.258 0.750349 191.177 0.835372 191.126 0.837052C189.53 0.89085 188.608 0.842185 186.952 0.834611C186.165 0.830865 184.603 0.843197 183.751 0.852494C183.078 0.859984 182.672 0.840059 182.051 0.8528C181.967 0.854501 182.052 0.892357 182.027 0.893815C181.334 0.939108 181.667 0.846562 181.524 0.830033C181.005 0.769927 180.685 0.737915 179.798 0.766191C179.593 0.772666 178.997 0.90592 178.624 0.913712C178.14 0.9236 178.323 0.875837 177.815 0.887406C177.771 0.888353 177.781 0.917819 177.467 0.91652C176.013 0.910877 174.427 0.893731 172.915 0.896684C172.709 0.896974 172.974 0.943712 172.675 0.944901C171.275 0.950441 169.741 0.948712 168.378 0.926835C168.042 0.921303 168.252 0.888578 168.179 0.878861C167.732 0.820069 167.098 0.905493 166.993 0.907121C164.496 0.948171 162.585 0.870864 160.04 0.90767C159.902 0.909831 158.836 1.00141 158.36 0.922868C158.327 0.917642 157.857 0.837289 157.44 0.892228C157.415 0.895665 157.708 0.937033 157.196 0.932816C156.684 0.928609 155.86 0.956234 155.157 0.910783C154.934 0.896465 154.408 0.816309 153.743 0.880204C153.7 0.884665 152.674 1.02914 152.308 0.929459C152.249 0.913051 152.311 0.807566 151.518 0.86165C151.367 0.872135 151.642 0.895663 151.243 0.910355C150.631 0.932999 149.821 0.904747 149.069 0.951737C148.938 0.960056 148.38 1.03165 147.932 0.977311C147.862 0.9688 147.995 0.933584 147.759 0.929643C146.634 0.910738 145.457 0.934294 144.316 0.909928C143.911 0.901367 144.118 0.844435 143.697 0.829179C143.275 0.813928 142.426 0.799257 141.985 0.825273C141.544 0.8513 142.026 0.942035 141.365 0.949296C138.492 0.98083 135.646 0.927602 132.777 0.919816C132.351 0.918653 132.704 0.951121 132.077 0.951737C129.765 0.954153 125.774 0.984595 123.768 0.915604C122.161 0.860347 124.183 0.818279 122.955 0.795793C122.362 0.785066 121.721 0.890555 121.578 0.893876C120.18 0.927611 119.209 0.880882 117.951 0.895219C117.691 0.898194 117.946 0.940949 117.725 0.943009C116.97 0.950424 116.176 0.93134 115.455 0.93483C115.131 0.936495 115.19 0.96915 114.893 0.96663C114.18 0.960975 113.549 0.947249 112.855 0.916642C112.791 0.913853 113.218 0.873231 112.691 0.87172C111.837 0.869391 110.778 0.839197 109.796 0.870378C109.505 0.879757 109.493 0.95439 108.867 0.902848C108.735 0.892083 108.903 0.802465 108.174 0.879899C108.051 0.892767 106.825 0.99721 106.224 0.929887C106.065 0.912168 105.66 0.838833 105.31 0.850358C105.262 0.852197 105.453 0.892285 105.162 0.896195C104.139 0.909279 103.067 0.905002 102.015 0.917558C101.735 0.92099 102.153 0.962473 101.734 0.966263C100.584 0.976749 99.1474 0.966186 98.0224 0.953202C97.6076 0.948336 97.8943 0.913973 97.8641 0.910233C97.3787 0.849408 97.0918 0.931508 96.9307 0.936295C95.9288 0.96496 95.1659 0.926395 94.2424 0.936601C93.9876 0.939313 94.1683 0.978459 94.1176 0.981949C93.5914 1.01605 93.9834 0.945754 93.6503 0.938004C92.7174 0.916062 91.6773 0.919208 90.7338 0.92421C90.3873 0.926105 90.7768 0.971496 90.4658 0.972672C88.625 0.980494 86.7113 0.97615 84.9149 0.951127C84.5766 0.946333 84.7894 0.911381 84.7189 0.903397C84.233 0.847545 83.5209 0.923728 83.357 0.930985C82.612 0.964121 82.3226 0.933212 81.6646 0.938981C78.4504 0.967705 74.4818 0.947234 71.4478 0.934586C67.4942 0.918309 64.4263 0.885059 60.6561 0.893693C60.4164 0.894198 60.6581 0.940695 60.4515 0.941727C57.7846 0.952936 55.1591 0.934767 52.4869 0.948197C52.2676 0.949217 52.5837 0.993296 52.2318 0.996415C51.5098 1.00312 50.5953 1.00072 49.8654 0.986649C49.5094 0.979868 49.9869 0.942043 49.6286 0.93599C48.7941 0.921809 47.8997 0.91867 47.0426 0.925736C46.6778 0.92884 47.2282 0.973922 46.7541 0.974442C43.5246 0.978915 40.353 0.986679 37.0895 0.9283C36.8658 0.92429 36.6695 0.832665 36.1938 0.850236C36.158 0.875664 36.1599 0.905576 36.1443 0.932755C31.4431 0.947396 26.7898 0.915633 22.0754 0.910722C21.8766 0.910525 22.2201 0.959073 21.8353 0.958939C19.608 0.958222 17.4452 0.971671 15.1669 0.923417C14.9409 0.918698 15.0569 0.833291 14.3907 0.846208C14.2732 0.848565 13.2699 0.859955 13.0105 0.878495C12.9753 0.881292 13.1583 0.921156 12.835 0.922318C10.9563 0.928372 8.9874 0.919271 7.11188 0.894914C6.80918 0.890906 7.13153 0.848454 6.91594 0.845231C5.38663 0.822696 3.72317 0.854967 2.26184 0.816423C1.28368 0.79047 1.64582 0.717087 1.12604 0.644853C1.05252 0.634662 0.446812 0.633047 0.415489 0.591021C0.335074 0.48534 0.628459 0.369621 0.508076 0.256976C0.482642 0.232713 -0.328558 0.258846 0.151725 0.200214C0.185277 0.19629 0.773401 0.17683 0.918257 0.15694C1.01911 0.143188 0.837369 0.100447 1.04314 0.0828434C1.2489 0.0652564 1.47499 0.101084 1.81613 0.080402C2.15712 0.0594636 2.00718 0.0108407 2.68817 0.00508493ZM189.221 0.680559C188.683 0.639728 188.603 0.789275 189.186 0.753496C189.214 0.751589 189.249 0.682562 189.221 0.680559ZM254.367 0.656938C253.663 0.590977 253.181 0.687966 253.678 0.738908C254.174 0.789796 254.581 0.676934 254.367 0.656938ZM261.666 0.608782C260.844 0.556775 260.714 0.768839 261.595 0.725969C261.646 0.723546 261.714 0.611802 261.666 0.608782ZM3.53652 0.624285C3.52909 0.622299 3.09368 0.620363 3.08328 0.622331C2.85143 0.669827 3.72207 0.673665 3.53652 0.624285ZM268.909 0.556353C268.653 0.527666 267.913 0.560781 268.232 0.596453C268.489 0.625149 269.229 0.592037 268.909 0.556353ZM161.134 0.520952C161.126 0.518724 160.814 0.516717 160.82 0.529314C160.841 0.569886 161.275 0.558436 161.134 0.520952ZM281.22 0.553911C279.401 0.545929 278.299 0.370754 280.279 0.390521C280.638 0.394097 279.506 0.446383 279.963 0.462176C280.798 0.490948 281.353 0.38096 282.205 0.439898C282.36 0.450686 281.324 0.554756 281.217 0.554155C281.218 0.554074 281.219 0.553993 281.22 0.553911ZM188.911 0.500933C188.901 0.498955 188.468 0.49708 188.458 0.499041C188.224 0.546518 189.095 0.550323 188.911 0.500933ZM142.919 0.428484C142.896 0.424271 141.893 0.420329 141.86 0.424212C141.337 0.50185 143.364 0.510048 142.919 0.428484ZM218.014 0.391497C218.485 0.343735 219.049 0.338112 219.425 0.398089C218.957 0.394905 218.485 0.394436 218.014 0.391497Z" fill="var(--stroke-0, black)" fill-opacity="0.6"/>
</svg>
