<svg preserveAspectRatio="none" width="100%" height="100%" overflow="visible" style="display: block;" viewBox="0 0 16.5014 15.8041" fill="none" xmlns="http://www.w3.org/2000/svg">
<path id="Vector" d="M7.8951 0.97117C7.92797 0.904766 7.97874 0.84887 8.04169 0.809789C8.10464 0.770709 8.17726 0.75 8.25135 0.75C8.32544 0.75 8.39806 0.770709 8.46101 0.809789C8.52396 0.84887 8.57473 0.904766 8.6076 0.97117L10.3401 4.48042C10.4542 4.7114 10.6227 4.91123 10.8311 5.06276C11.0394 5.21429 11.2814 5.313 11.5363 5.35042L15.4109 5.91742C15.4843 5.92806 15.5532 5.95902 15.61 6.00682C15.6667 6.05462 15.7089 6.11733 15.7319 6.18788C15.7548 6.25842 15.7576 6.33398 15.7398 6.406C15.722 6.47802 15.6845 6.54363 15.6314 6.59542L12.8294 9.32392C12.6446 9.504 12.5063 9.72628 12.4265 9.97164C12.3466 10.217 12.3276 10.4781 12.3711 10.7324L13.0326 14.5874C13.0456 14.6608 13.0376 14.7363 13.0097 14.8054C12.9818 14.8745 12.935 14.9344 12.8748 14.9782C12.8145 15.022 12.7431 15.0479 12.6687 15.0531C12.5944 15.0583 12.5201 15.0424 12.4543 15.0074L8.99085 13.1864C8.76264 13.0666 8.50873 13.004 8.25097 13.004C7.99322 13.004 7.73931 13.0666 7.5111 13.1864L4.04835 15.0074C3.9826 15.0422 3.9084 15.0579 3.83419 15.0526C3.75998 15.0473 3.68874 15.0213 3.62857 14.9776C3.5684 14.9338 3.52172 14.8741 3.49384 14.8051C3.46596 14.7361 3.45799 14.6607 3.47085 14.5874L4.1316 10.7332C4.17525 10.4787 4.15634 10.2175 4.0765 9.97196C3.99667 9.72644 3.85831 9.50404 3.67335 9.32392L0.87135 6.59617C0.817795 6.54444 0.779845 6.47872 0.761822 6.40648C0.743799 6.33423 0.746428 6.25838 0.769409 6.18756C0.79239 6.11674 0.8348 6.0538 0.891807 6.00591C0.948815 5.95801 1.01813 5.92709 1.09185 5.91667L4.9656 5.35042C5.22079 5.31329 5.46314 5.21471 5.67179 5.06316C5.88043 4.91161 6.04913 4.71162 6.16335 4.48042L7.8951 0.97117Z" stroke="var(--stroke-0, black)" stroke-width="1.5" stroke-linecap="round" stroke-linejoin="round"/>
</svg>
