<svg preserveAspectRatio="none" width="100%" height="100%" overflow="visible" style="display: block;" viewBox="0 0 13.5 10.5" fill="none" xmlns="http://www.w3.org/2000/svg">
<path id="Vector" d="M12 9.75C12.1989 9.75 12.3897 9.67098 12.5303 9.53033C12.671 9.38968 12.75 9.19891 12.75 9V8.25C12.75 7.85218 12.592 7.47064 12.3107 7.18934C12.0294 6.90804 11.6478 6.75 11.25 6.75H9C8.80109 6.75 8.61032 6.67098 8.46967 6.53033C8.32902 6.38968 8.25 6.19891 8.25 6V2.25C8.25 1.85218 8.09196 1.47064 7.81066 1.18934C7.52936 0.908035 7.14782 0.75 6.75 0.75C6.35218 0.75 5.97064 0.908035 5.68934 1.18934C5.40804 1.47064 5.25 1.85218 5.25 2.25V6C5.25 6.19891 5.17098 6.38968 5.03033 6.53033C4.88968 6.67098 4.69891 6.75 4.5 6.75H2.25C1.85218 6.75 1.47064 6.90804 1.18934 7.18934C0.908035 7.47064 0.75 7.85218 0.75 8.25V9C0.75 9.19891 0.829018 9.38968 0.96967 9.53033C1.11032 9.67098 1.30109 9.75 1.5 9.75" stroke="var(--stroke-0, #919191)" stroke-width="1.5" stroke-linecap="round" stroke-linejoin="round"/>
</svg>
