<svg preserveAspectRatio="none" width="100%" height="100%" overflow="visible" style="display: block;" viewBox="0 0 129.267 129.267" fill="none" xmlns="http://www.w3.org/2000/svg">
<g id="Group">
<path id="Vector" d="M64.6333 129.267C100.329 129.267 129.267 100.329 129.267 64.6333C129.267 28.9373 100.329 0 64.6333 0C28.9373 0 0 28.9373 0 64.6333C0 100.329 28.9373 129.267 64.6333 129.267Z" fill="var(--fill-0, #FEB05D)"/>
<path id="Vector_2" d="M58.2249 89.2891C56.7709 89.2914 55.3555 88.8209 54.1923 87.9486L54.1228 87.8943L38.9331 76.2749C37.527 75.1806 36.6106 73.5747 36.3837 71.8074C36.1568 70.0401 36.6378 68.2548 37.7219 66.8407C38.806 65.4266 40.4052 64.4985 42.1708 64.2588C43.9364 64.019 45.7252 64.487 47.1471 65.5608L56.9859 73.1059L80.2352 42.7746C80.7739 42.0709 81.4459 41.4803 82.213 41.0365C82.9801 40.5927 83.8272 40.3045 84.7057 40.1883C85.5843 40.072 86.4771 40.1301 87.3332 40.3591C88.1893 40.5882 88.9919 40.9837 89.695 41.5231L89.5511 41.7233L89.6992 41.5231C91.1185 42.6129 92.0473 44.2213 92.282 45.9952C92.5166 47.7692 92.0378 49.5637 90.9507 50.9851L63.6042 86.6456C62.9715 87.4672 62.1581 88.132 61.227 88.5885C60.296 89.045 59.2722 89.2809 58.2353 89.2779L58.2249 89.2891Z" fill="var(--fill-0, white)"/>
</g>
</svg>
