<svg preserveAspectRatio="none" width="100%" height="100%" overflow="visible" style="display: block;" viewBox="0 0 75.8326 63.6501" fill="none" xmlns="http://www.w3.org/2000/svg">
<g id="Group">
<path id="Vector" fill-rule="evenodd" clip-rule="evenodd" d="M70.3778 5.07123L70.3808 5.07411C73.896 8.33112 75.8487 12.6692 75.8325 17.3223V17.3251C75.8325 21.9502 73.8948 26.2924 70.3629 29.5651L34.1954 63.0925C33.3936 63.8359 32.0824 63.8359 31.2803 63.0928L5.46951 39.1771C1.93808 35.905 0 31.5656 0 26.9234C0 22.2808 1.93808 17.9416 5.46951 14.6695C9.00001 11.3982 13.6703 9.61196 18.656 9.61196C23.4276 9.61196 27.9195 11.2625 31.4014 14.2928L32.7623 15.4772L44.0077 5.05753C47.5382 1.78625 52.2087 0 57.1944 0C62.1782 0 66.8652 1.80158 70.3778 5.07123ZM11.9025 33.0165L32.1232 51.3496L61.2194 25.0463L62.5253 23.7535C66.0837 20.5115 66.084 15.2381 62.5261 11.9958C58.983 8.75291 53.2201 8.75336 49.6775 11.9972L33.6033 26.8134L26.233 20.259C22.69 17.0161 16.1622 17.7152 12.6198 20.959C9.07958 24.2008 8.36227 29.7745 11.9025 33.0165Z" fill="var(--fill-0, #00CE62)"/>
</g>
</svg>
