<svg preserveAspectRatio="none" width="100%" height="100%" overflow="visible" style="display: block;" viewBox="0 0 273.35 67" fill="none" xmlns="http://www.w3.org/2000/svg">
<path id="Vector" d="M267.292 38.774C267.359 37.9803 267.384 37.1738 267.384 36.3673C267.384 19.4958 253.176 5.77322 235.707 5.77322C224.735 5.77322 215.058 11.188 209.372 19.3934C203.685 11.188 194.011 5.77322 183.037 5.77322C182.202 5.77322 181.38 5.79882 180.545 5.86284C177.537 2.27856 172.937 0.0128006 167.782 0.0128006C159.498 0.0128006 152.646 5.96523 151.532 13.6714C145.913 8.78144 138.504 5.77322 130.366 5.77322C119.405 5.77322 109.73 11.188 104.043 19.3934C98.3574 11.188 88.6822 5.77322 77.7212 5.77322C72.0352 5.77322 66.6937 7.24532 62.0814 9.79269C59.6031 4.05788 53.7448 0 46.9056 0H16.435C7.36921 0.0128009 0 7.13011 0 15.886C0 24.245 6.73292 31.119 15.2421 31.7078V51.1269C15.2421 59.8826 22.6113 67 31.6769 67C40.7426 67 48.1118 59.8826 48.1118 51.1269V47.0946C52.6182 58.6923 64.1888 66.9743 77.7344 66.9743C88.6953 66.9743 98.3709 61.5596 104.057 53.3543C109.743 61.5596 119.418 66.9743 130.379 66.9743C141.34 66.9743 151.016 61.5596 156.701 53.3543C162.387 61.5596 172.063 66.9743 183.024 66.9743C193.998 66.9743 203.674 61.5596 209.36 53.3543C215.046 61.5596 224.721 66.9743 235.696 66.9743H256.916C265.98 66.9743 273.35 59.8572 273.35 51.1012C273.375 46.1345 271.017 41.6799 267.292 38.774ZM46.9321 23.2465H39.3112V51.1269C39.3112 55.1977 35.8917 58.4874 31.6903 58.4874C27.4754 58.4874 24.0559 55.1977 24.0559 51.1269V23.2465H16.435C12.2333 23.2465 8.8138 19.9438 8.8138 15.886C8.8138 11.8153 12.2333 8.52542 16.435 8.52542H46.9321C51.1336 8.52542 54.5533 11.8153 54.5533 15.886C54.5533 19.9438 51.1336 23.2465 46.9321 23.2465ZM77.7475 58.4617C65.1166 58.4617 54.8845 48.5795 54.8845 36.3673C54.8845 24.1681 65.1166 14.2858 77.7475 14.2858C90.3785 14.2858 100.611 24.1809 100.611 36.3673C100.611 48.5795 90.3654 58.4617 77.7475 58.4617ZM130.405 58.4617C117.774 58.4617 107.542 48.5795 107.542 36.3673C107.542 24.1681 117.774 14.2858 130.405 14.2858C143.037 14.2858 153.269 24.1809 153.269 36.3673C153.269 48.5795 143.037 58.4617 130.405 58.4617ZM183.05 58.4617C170.419 58.4617 160.187 48.5795 160.187 36.3673V15.886C160.187 11.8153 163.607 8.52542 167.808 8.52542C171.904 8.52542 175.244 11.6488 175.416 15.5659C177.802 14.7339 180.373 14.2858 183.05 14.2858C195.681 14.2858 205.915 24.1809 205.915 36.3673C205.926 48.5795 195.695 58.4617 183.05 58.4617ZM256.941 58.4617H235.721C223.09 58.4617 212.859 48.5795 212.859 36.3673C212.859 24.1681 223.09 14.2858 235.721 14.2858C248.352 14.2858 258.585 24.1809 258.585 36.3673C258.585 38.9532 258.121 41.4493 257.274 43.7535C261.329 43.9199 264.562 47.1331 264.562 51.1012C264.562 55.1591 261.142 58.4617 256.941 58.4617Z" fill="var(--fill-0, #00CE62)"/>
</svg>
